<mxfile host="app.diagrams.net" agent="Mozilla/5.0 (Windows NT 10.0; Win64; x64) AppleWebKit/537.36 (KHTML, like Gecko) Chrome/128.0.0.0 Safari/537.36" version="24.7.7">
  <diagram name="Page-1" id="nm8sWfivmhqMPhmnfs_8">
    <mxGraphModel dx="1173" dy="1406" grid="1" gridSize="10" guides="1" tooltips="1" connect="1" arrows="1" fold="1" page="1" pageScale="1" pageWidth="1169" pageHeight="827" math="0" shadow="0">
      <root>
        <mxCell id="0" />
        <mxCell id="1" parent="0" />
        <mxCell id="Bc-mtCA9UPAuSkefnndR-9" style="edgeStyle=orthogonalEdgeStyle;rounded=0;hachureGap=4;orthogonalLoop=1;jettySize=auto;html=1;exitX=0.5;exitY=0;exitDx=0;exitDy=0;exitPerimeter=0;fontFamily=Architects Daughter;fontSource=https%3A%2F%2Ffonts.googleapis.com%2Fcss%3Ffamily%3DArchitects%2BDaughter;flowAnimation=1;" parent="1" source="Bc-mtCA9UPAuSkefnndR-1" edge="1">
          <mxGeometry relative="1" as="geometry">
            <mxPoint x="490" y="10" as="targetPoint" />
          </mxGeometry>
        </mxCell>
        <mxCell id="Bc-mtCA9UPAuSkefnndR-1" value="" style="sketch=0;aspect=fixed;pointerEvents=1;shadow=0;dashed=0;html=1;strokeColor=none;labelPosition=center;verticalLabelPosition=bottom;verticalAlign=top;align=center;fillColor=#00188D;shape=mxgraph.azure.laptop;hachureGap=4;jiggle=2;curveFitting=1;fontFamily=Architects Daughter;fontSource=https%3A%2F%2Ffonts.googleapis.com%2Fcss%3Ffamily%3DArchitects%2BDaughter;" parent="1" vertex="1">
          <mxGeometry x="70" y="180" width="260" height="156" as="geometry" />
        </mxCell>
        <mxCell id="Bc-mtCA9UPAuSkefnndR-4" value="" style="shape=image;html=1;verticalAlign=top;verticalLabelPosition=bottom;labelBackgroundColor=#ffffff;imageAspect=0;aspect=fixed;image=https://cdn3.iconfinder.com/data/icons/brands-applications/512/SVN_B-128.png;sketch=1;hachureGap=4;jiggle=2;curveFitting=1;fontFamily=Architects Daughter;fontSource=https%3A%2F%2Ffonts.googleapis.com%2Fcss%3Ffamily%3DArchitects%2BDaughter;" parent="1" vertex="1">
          <mxGeometry x="420" y="-120" width="128" height="128" as="geometry" />
        </mxCell>
        <mxCell id="Bc-mtCA9UPAuSkefnndR-10" style="edgeStyle=orthogonalEdgeStyle;rounded=0;hachureGap=4;orthogonalLoop=1;jettySize=auto;html=1;exitX=0.5;exitY=0;exitDx=0;exitDy=0;exitPerimeter=0;fontFamily=Architects Daughter;fontSource=https%3A%2F%2Ffonts.googleapis.com%2Fcss%3Ffamily%3DArchitects%2BDaughter;flowAnimation=1;" parent="1" source="Bc-mtCA9UPAuSkefnndR-6" edge="1">
          <mxGeometry relative="1" as="geometry">
            <mxPoint x="490" y="10" as="targetPoint" />
          </mxGeometry>
        </mxCell>
        <mxCell id="Bc-mtCA9UPAuSkefnndR-6" value="" style="sketch=0;aspect=fixed;pointerEvents=1;shadow=0;dashed=0;html=1;strokeColor=none;labelPosition=center;verticalLabelPosition=bottom;verticalAlign=top;align=center;fillColor=#00188D;shape=mxgraph.azure.laptop;hachureGap=4;jiggle=2;curveFitting=1;fontFamily=Architects Daughter;fontSource=https%3A%2F%2Ffonts.googleapis.com%2Fcss%3Ffamily%3DArchitects%2BDaughter;" parent="1" vertex="1">
          <mxGeometry x="360" y="180" width="260" height="156" as="geometry" />
        </mxCell>
        <mxCell id="Bc-mtCA9UPAuSkefnndR-11" style="edgeStyle=orthogonalEdgeStyle;rounded=0;hachureGap=4;orthogonalLoop=1;jettySize=auto;html=1;exitX=0.5;exitY=0;exitDx=0;exitDy=0;exitPerimeter=0;fontFamily=Architects Daughter;fontSource=https%3A%2F%2Ffonts.googleapis.com%2Fcss%3Ffamily%3DArchitects%2BDaughter;flowAnimation=1;" parent="1" source="Bc-mtCA9UPAuSkefnndR-7" edge="1">
          <mxGeometry relative="1" as="geometry">
            <mxPoint x="490" y="10" as="targetPoint" />
          </mxGeometry>
        </mxCell>
        <mxCell id="Bc-mtCA9UPAuSkefnndR-7" value="" style="sketch=0;aspect=fixed;pointerEvents=1;shadow=0;dashed=0;html=1;strokeColor=none;labelPosition=center;verticalLabelPosition=bottom;verticalAlign=top;align=center;fillColor=#00188D;shape=mxgraph.azure.laptop;hachureGap=4;jiggle=2;curveFitting=1;fontFamily=Architects Daughter;fontSource=https%3A%2F%2Ffonts.googleapis.com%2Fcss%3Ffamily%3DArchitects%2BDaughter;" parent="1" vertex="1">
          <mxGeometry x="650" y="180" width="260" height="156" as="geometry" />
        </mxCell>
        <mxCell id="Bc-mtCA9UPAuSkefnndR-14" value="&lt;h1&gt;&lt;b&gt;Central Remote Server&lt;/b&gt;&lt;/h1&gt;" style="text;html=1;align=center;verticalAlign=middle;resizable=0;points=[];autosize=1;strokeColor=none;fillColor=none;fontFamily=Architects Daughter;fontSource=https%3A%2F%2Ffonts.googleapis.com%2Fcss%3Ffamily%3DArchitects%2BDaughter;" parent="1" vertex="1">
          <mxGeometry x="548" y="-91" width="290" height="70" as="geometry" />
        </mxCell>
        <mxCell id="Bc-mtCA9UPAuSkefnndR-15" value="" style="verticalLabelPosition=bottom;html=1;verticalAlign=top;align=center;strokeColor=none;fillColor=#00BEF2;shape=mxgraph.azure.github_code;pointerEvents=1;hachureGap=4;fontFamily=Architects Daughter;fontSource=https%3A%2F%2Ffonts.googleapis.com%2Fcss%3Ffamily%3DArchitects%2BDaughter;" parent="1" vertex="1">
          <mxGeometry x="542.5" y="530" width="145" height="140" as="geometry" />
        </mxCell>
        <mxCell id="Bc-mtCA9UPAuSkefnndR-29" style="edgeStyle=orthogonalEdgeStyle;rounded=0;hachureGap=4;orthogonalLoop=1;jettySize=auto;html=1;exitX=0.5;exitY=0;exitDx=0;exitDy=0;exitPerimeter=0;entryX=0.5;entryY=1;entryDx=0;entryDy=0;fontFamily=Architects Daughter;fontSource=https%3A%2F%2Ffonts.googleapis.com%2Fcss%3Ffamily%3DArchitects%2BDaughter;" parent="1" source="Bc-mtCA9UPAuSkefnndR-16" target="Bc-mtCA9UPAuSkefnndR-17" edge="1">
          <mxGeometry relative="1" as="geometry" />
        </mxCell>
        <mxCell id="Bc-mtCA9UPAuSkefnndR-16" value="" style="sketch=0;aspect=fixed;pointerEvents=1;shadow=0;dashed=0;html=1;strokeColor=none;labelPosition=center;verticalLabelPosition=bottom;verticalAlign=top;align=center;fillColor=#00188D;shape=mxgraph.azure.laptop;hachureGap=4;jiggle=2;curveFitting=1;fontFamily=Architects Daughter;fontSource=https%3A%2F%2Ffonts.googleapis.com%2Fcss%3Ffamily%3DArchitects%2BDaughter;" parent="1" vertex="1">
          <mxGeometry x="70" y="1020" width="200" height="120" as="geometry" />
        </mxCell>
        <mxCell id="Bc-mtCA9UPAuSkefnndR-34" style="edgeStyle=orthogonalEdgeStyle;rounded=0;hachureGap=4;orthogonalLoop=1;jettySize=auto;html=1;fontFamily=Architects Daughter;fontSource=https%3A%2F%2Ffonts.googleapis.com%2Fcss%3Ffamily%3DArchitects%2BDaughter;entryX=0;entryY=0.5;entryDx=0;entryDy=0;entryPerimeter=0;" parent="1" source="Bc-mtCA9UPAuSkefnndR-17" target="Bc-mtCA9UPAuSkefnndR-15" edge="1">
          <mxGeometry relative="1" as="geometry">
            <mxPoint x="410" y="510" as="targetPoint" />
            <Array as="points">
              <mxPoint x="325" y="600" />
            </Array>
          </mxGeometry>
        </mxCell>
        <mxCell id="Bc-mtCA9UPAuSkefnndR-17" value="&lt;b&gt;&lt;font style=&quot;font-size: 16px;&quot;&gt;Local Repo&lt;/font&gt;&lt;/b&gt;" style="rounded=1;whiteSpace=wrap;html=1;hachureGap=4;fontFamily=Architects Daughter;fontSource=https%3A%2F%2Ffonts.googleapis.com%2Fcss%3Ffamily%3DArchitects%2BDaughter;" parent="1" vertex="1">
          <mxGeometry x="240" y="850" width="170" height="90" as="geometry" />
        </mxCell>
        <mxCell id="Bc-mtCA9UPAuSkefnndR-27" style="edgeStyle=orthogonalEdgeStyle;rounded=0;hachureGap=4;orthogonalLoop=1;jettySize=auto;html=1;exitX=0.5;exitY=0;exitDx=0;exitDy=0;exitPerimeter=0;entryX=0.5;entryY=1;entryDx=0;entryDy=0;fontFamily=Architects Daughter;fontSource=https%3A%2F%2Ffonts.googleapis.com%2Fcss%3Ffamily%3DArchitects%2BDaughter;" parent="1" source="Bc-mtCA9UPAuSkefnndR-21" target="Bc-mtCA9UPAuSkefnndR-22" edge="1">
          <mxGeometry relative="1" as="geometry" />
        </mxCell>
        <mxCell id="Bc-mtCA9UPAuSkefnndR-21" value="" style="sketch=0;aspect=fixed;pointerEvents=1;shadow=0;dashed=0;html=1;strokeColor=none;labelPosition=center;verticalLabelPosition=bottom;verticalAlign=top;align=center;fillColor=#00188D;shape=mxgraph.azure.laptop;hachureGap=4;jiggle=2;curveFitting=1;fontFamily=Architects Daughter;fontSource=https%3A%2F%2Ffonts.googleapis.com%2Fcss%3Ffamily%3DArchitects%2BDaughter;" parent="1" vertex="1">
          <mxGeometry x="360" y="1020" width="200" height="120" as="geometry" />
        </mxCell>
        <mxCell id="Bc-mtCA9UPAuSkefnndR-35" style="edgeStyle=orthogonalEdgeStyle;rounded=0;hachureGap=4;orthogonalLoop=1;jettySize=auto;html=1;fontFamily=Architects Daughter;fontSource=https%3A%2F%2Ffonts.googleapis.com%2Fcss%3Ffamily%3DArchitects%2BDaughter;" parent="1" source="Bc-mtCA9UPAuSkefnndR-22" target="Bc-mtCA9UPAuSkefnndR-15" edge="1">
          <mxGeometry relative="1" as="geometry" />
        </mxCell>
        <mxCell id="Bc-mtCA9UPAuSkefnndR-22" value="&lt;b&gt;&lt;font style=&quot;font-size: 16px;&quot;&gt;Local Repo&lt;/font&gt;&lt;/b&gt;" style="rounded=1;whiteSpace=wrap;html=1;hachureGap=4;fontFamily=Architects Daughter;fontSource=https%3A%2F%2Ffonts.googleapis.com%2Fcss%3Ffamily%3DArchitects%2BDaughter;" parent="1" vertex="1">
          <mxGeometry x="530" y="850" width="170" height="90" as="geometry" />
        </mxCell>
        <mxCell id="Bc-mtCA9UPAuSkefnndR-28" style="edgeStyle=orthogonalEdgeStyle;rounded=0;hachureGap=4;orthogonalLoop=1;jettySize=auto;html=1;exitX=0.5;exitY=0;exitDx=0;exitDy=0;exitPerimeter=0;entryX=0.5;entryY=1;entryDx=0;entryDy=0;fontFamily=Architects Daughter;fontSource=https%3A%2F%2Ffonts.googleapis.com%2Fcss%3Ffamily%3DArchitects%2BDaughter;" parent="1" source="Bc-mtCA9UPAuSkefnndR-23" target="Bc-mtCA9UPAuSkefnndR-24" edge="1">
          <mxGeometry relative="1" as="geometry" />
        </mxCell>
        <mxCell id="Bc-mtCA9UPAuSkefnndR-23" value="" style="sketch=0;aspect=fixed;pointerEvents=1;shadow=0;dashed=0;html=1;strokeColor=none;labelPosition=center;verticalLabelPosition=bottom;verticalAlign=top;align=center;fillColor=#00188D;shape=mxgraph.azure.laptop;hachureGap=4;jiggle=2;curveFitting=1;fontFamily=Architects Daughter;fontSource=https%3A%2F%2Ffonts.googleapis.com%2Fcss%3Ffamily%3DArchitects%2BDaughter;" parent="1" vertex="1">
          <mxGeometry x="670" y="1020" width="200" height="120" as="geometry" />
        </mxCell>
        <mxCell id="Bc-mtCA9UPAuSkefnndR-24" value="&lt;b&gt;&lt;font style=&quot;font-size: 16px;&quot;&gt;Local Repo&lt;/font&gt;&lt;/b&gt;" style="rounded=1;whiteSpace=wrap;html=1;hachureGap=4;fontFamily=Architects Daughter;fontSource=https%3A%2F%2Ffonts.googleapis.com%2Fcss%3Ffamily%3DArchitects%2BDaughter;" parent="1" vertex="1">
          <mxGeometry x="840" y="850" width="170" height="90" as="geometry" />
        </mxCell>
        <mxCell id="Bc-mtCA9UPAuSkefnndR-36" style="edgeStyle=orthogonalEdgeStyle;rounded=0;hachureGap=4;orthogonalLoop=1;jettySize=auto;html=1;entryX=1;entryY=0.5;entryDx=0;entryDy=0;entryPerimeter=0;fontFamily=Architects Daughter;fontSource=https%3A%2F%2Ffonts.googleapis.com%2Fcss%3Ffamily%3DArchitects%2BDaughter;" parent="1" source="Bc-mtCA9UPAuSkefnndR-24" target="Bc-mtCA9UPAuSkefnndR-15" edge="1">
          <mxGeometry relative="1" as="geometry">
            <Array as="points">
              <mxPoint x="925" y="600" />
            </Array>
          </mxGeometry>
        </mxCell>
        <mxCell id="Bc-mtCA9UPAuSkefnndR-37" value="" style="sketch=0;aspect=fixed;pointerEvents=1;shadow=0;dashed=0;html=1;strokeColor=none;labelPosition=center;verticalLabelPosition=bottom;verticalAlign=top;align=center;fillColor=#00188D;shape=mxgraph.azure.laptop;hachureGap=4;jiggle=2;curveFitting=1;fontFamily=Architects Daughter;fontSource=https%3A%2F%2Ffonts.googleapis.com%2Fcss%3Ffamily%3DArchitects%2BDaughter;" parent="1" vertex="1">
          <mxGeometry x="40" y="1610" width="610" height="366" as="geometry" />
        </mxCell>
        <mxCell id="64za9qXbno38b4CeHoNa-6" style="edgeStyle=orthogonalEdgeStyle;rounded=0;hachureGap=4;orthogonalLoop=1;jettySize=auto;html=1;fontFamily=Architects Daughter;fontSource=https%3A%2F%2Ffonts.googleapis.com%2Fcss%3Ffamily%3DArchitects%2BDaughter;" parent="1" source="64za9qXbno38b4CeHoNa-1" edge="1">
          <mxGeometry relative="1" as="geometry">
            <mxPoint x="310" y="1765" as="targetPoint" />
            <Array as="points">
              <mxPoint x="217" y="1765" />
              <mxPoint x="310" y="1765" />
            </Array>
          </mxGeometry>
        </mxCell>
        <mxCell id="64za9qXbno38b4CeHoNa-1" value="" style="shape=image;verticalLabelPosition=bottom;labelBackgroundColor=default;verticalAlign=top;aspect=fixed;imageAspect=0;image=data:image/png,iVBORw0KGgoAAAANSUhEUgAAAZ0AAAFtCAIAAABTLyDsAAAgAElEQVR4Aey9e2wbVd7/b8pSVlBVq90urFYLFFq2KlotaLd6JCRQ9UOAhJAQ3X1WlfgDsa0EVZ9Nu23T+5ZL2zQESkjZQtM8tGlDS9uQBCcOwWkuzeVJrDZpHMfxLXF8S5xK7Aro5fvP/vXTmffMxx+fsR3nHtuDLHN85sx4ZjJ+9f05n8sxjRv/GXfAuAPGHciuO2DKrssxrsa4A8YdMO7AuME14yEw7oBxB7LtDhhcy7a/qHE9xh0w7oDBNeMZMO6AcQey7Q4YXMu2v6hxPcYdMO6AwTXjGTDugHEHsu0OGFzLtr+ocT3GHTDugME14xkw7oBxB7LtDhhcy7a/qHE9xh0w7oDBNeMZMO6AcQey7Q4YXMu2v6hxPcYdMO6AwTXjGTDugHEHsu0OGFzLtr+ocT1TuwPRaJR2HNPa4dFoZDSK/8ai0TGlFRmNhkfVwXwv3qZDGY15uQMG1+blthtfuhDvQHhUkCsYiQZDEVf4hiN0wxW+0eoea3WPdfnG6dXqHqOtjtCN4UA4GBE7jo+PG2hbIH9Xg2sL5A9hnMY83wFIsOFAGDj7yjHe5L1xqu9f5/q/O9f/3Wc9sde5/u9O9f3rbE+4ySuo5wgJAoKJ83wNxtdrd8DgmnYnjP/n9h0IjwqZ5gjd6PKNdwwJon3W892etn+/1/mvDS0/bmj6nl7vdf5rT9u/VeRdCzR5haxzhW8EQ5HcvoUL6OoNri2gP4ZxKvNyB/yh0eFA2BVWiVbp/YGIltf2Q17bD//99b//dOUmvfLafgDj3uv8F6cbtBsAF1Zm5aABDeN07v+sBtfm/p4b37hQ7kA0GnWNRLpdAYsj8pVjvKh1JN/i3WQeerXKt6Ha90KF+6ljtkc+GHip+dYz39z+r6qbf2y4gxcY91LzLQBOkm+YgOPzbgvlgnPmPAyu5cyf2rhQ3R2IRqOAGoj2apVv7RnPk2Wu5WXeXxX2P/LBwC9P+n950r+8zPuL06FfnvSvPnvnmW9u89cfG+6Acf/99b83NH2/p+3fn/V8d+5aoMs37gjd8AYj5DnVfbnRMYt3wODaLN5c49AL+Q6MRaO+YMTiiBS1juyyjqw72/9kmetXhf2mI07Tbqtpt/X+HfWikd9g2mn5+QfX7/3n8IPHI7+13Hnccmu19T/0+u03/2+19T8AXF7bDzBOT/X9C14FX1iNFIG3lCJIFvKdyYJzM7iWBX9E4xImdweCkag3GOnxBOt7fEWtIxuqfetrhn53uHF5mfeerV+b9l427Wu6a3/LXftbRHvvZdHYbf35B9d//sH1B49HflP2vYS21db/PGf+4Y8Nd54zi8k4opvwpSqOBUy9eYOR4UDYHxo1RNzk/mCTH21wbfL3zNgjk+9ANCqg1mwfLm93H6jpe/207bmS1qeO2ZYcaF68txFQEzJtp6LUttebttaJV36DoJsi3B48Hnm4/LYebY9bxDQc6PanKzdp6k1Ypv3fQb65wiLeLRAey+RbmAHnbnAtA/5IxinO7B1wjUQ+v+LaZR15tcr3RHHXw4Udyw5dWXKg2bS93rTDqr7vsJp2Wkzb6k15ZtPmGvHKM4tNuxuh2h433/5t/R2yRqnxnPmH1db/EOAg36R5NyMiZGb/oPqjGVzT3xOjJwvvwFhUJD9FRqM9nmC1zXugpm/d2X5ATci0rXUq0bbXC3htrxd6jXPtrSrTW1UK3WpN+Q1A24rKW1BtmGIjtFEDdIN2o6CQjqEb3a4AQt5cI8IypXSFLLzv83RJBtfm6cYbXzu3dyA8GnX6I/U9vvJ293tmu6zUdlpNuxuFi2CHVbzyG8RHSbIR2jSuPVx+e2VVnA+BiEYNEm48KOSzHpGxQOkKdl/YF4wYLoUZfCIMrs3gzTQOtXDvQHg02jbgL/7WsbG8a33NUEypKZ4B074mMaeGNt6FXlNgJ+hmVQzSGiHZNl7C1Bsk28qa2EQbqTZqrKy9tbJWaDqEhsBnCsBJblPXSCSi5dIv3JuYOWdmcC1z/lbGmU7+DkAERUajdl+4vN29/WLv8yVt5CWA05PeVa7ta5IxBym3tU5w7a0qMdG29/LPP7huKnQ8XH6bKAaNBpbROwm31db/YCQU3EvNt/LafqB5t6tuYZkOB8JRxV42LNPJ/6nj9jC4Fnc7jA9Zdgcio9Hr3lBD79C5Tvcu68j6mqFkUFMDO3Y3Cr8n5Nu+JtNOqxLk0Sg02lZzjGv5Dab9A5BsnGvA2W8td35rubOyVpioeOd0I6/Cn67cRJ4W6AbLFAG9YJxBtyk/jQbXpnzrjB0z4A44/ZFqmxdBai+WtE8INTGttveysEkVqKnvCPvgXFPidfVcA8iIa4Q2agBwz5l/4JYpchWQTs/TFVwjkWAkVhUuA273gjlFg2sL5k9hnMhM34GxqJhT+7TJ+VpZ98OFHRTPQYan1BBQU5SaEqqmoA2TbrsVvZbH9NruRh7wQXKM6zVINjJIeQPjATuYpY+bb6shby0/nuoT6fQoEzIcCM/0XcmJ4xlcy4k/c05dZCA8FgiP2X3hxr7hz6+48s5fffajlocLOxbvFTZmipfKNRihikZTAUdcA9ryzMJVqmQgILOKuMb1GlSb/p0AR1bqytpYQK8070Y+UxEXogSFGNVB0nmYDa6lc5eMMRlzB6JKwdu2Af+5TndBnf3Ns93Pl7QtO3Rl2aErKYiGTaTXhGqTvKL5DcJdkIhrK2tuE9ckvaaHGvXo6UbpCn+6cjNFMhZ8Cxnz95inEzW4Nk833vjamb4DiJMIhMec/ojwElT2SEFq6XINei2/QaCNQj0krgk7VGSMPng8wrmWjl4jtEmG6mrrf15qVoNCkIwlhbwh1dQRumFItgmfHYNrE94iY0AG3AGkE/iUbPaG3qGi+v5Xq3zcS0Cp7MnoJsSaNr8Wp9cQoAuuIc5jm8imSsi19PUa6Eb+BGqstv7nccstbBVTb5dEPUueSI95N5QJCYZE1JvhNtU/oAbX9PfE6MmYOwDlAqg5/ZG2AT/SCV4r636iuAup7MlAJvWrUKPgtZ1KmC7Xa4hfy1MSRZNzjcuxCdtkjaIBubeyVnDtcUucdkthmWLtGCNdgT+1Btf43TDamXcHADV/aLRtwF/aMvjm2e4J4zkkoqkRahBrMEKlyTVkVlFcbkq9NiHLkg0gxtEA5CrQvNtz5h+4ZUpuU5TnNWof8WfX4Bq/G0Y7w+5ANBr1h0ad/ojNFUA6wdri1ocLOxBP+7P8ej3C9D0xC5TEGgLWINbIDiWu5ZmRQKqfX4PUIjBNs8GNU9inPNuUpyt0+cZ94VikmzEBZ3Atw37JxuniDkCeUDzHhS7Pvqre9TVDyw5dmTCeg6PNhAQDaXIN/tBkXEN6vFawiPsNZpxrQBtFhMSMU2XebUPT97xMSJdvnBY2RQHLnH1aDK7l7J8+gy9crIkXEa9uV6D2mq+ovn9jeddLxzqeOmZLJ56Dcw1GqGqKkl7jztCEek3Er6mF2GaVazTjRlZqDG1KeV5umaJMCBY2FaugjkRyVrgZXMvgn3cun3owErW5xNqdnzY5Xz9tQ30O007rkgPNErYm/BiTbJRBlVqvbTUj/mMO7FDgTLJnycnAk7EE4Fp+JPkGt2nOTroZXMtlOGTetcNL4A1GrrqFUvu0yZl3/ura4lbC2YTxHCkwJwLW9MFrer02V1yTcEYfU8y7SeV5bUoBS184KqpXhsTiWHCbZr2OM7iWeb/tnD1jrCDl9Ec6B0cudHkonSCdHKkUOIszRZHxPtN6bUX1TaISb1PnpBqk1xIap4h3g1dBWraZSiFl/SNkcC3r/8TZc4GoeQuoHajp4+kEqbE14VbVFM0QvcYTFWJArL+D9ZvhM/3TlZvS1ButapoLqysYXMuen312X0lEKeTd7Qpc6PIU1fevP9mFyFuhtrRl8SbkV4oBarTH7Oi1GH2U0mz0cfrajQ4F45S8ChT1xtMVqEyILxwNhlSvAtmk1MiCB8ngWhb8EbP8EhCk5hpR0wkO1PRtLO96RinRkYJTk9ok6zWebIBiHvkNYm0X5FFNZn5tRc1MWqBEMX2DbFI++/a45RZf1XRP279hmXYM3aBKIY7QDZp3y5onyeBa1vwps/NCxpTIW9S8PWHtkxbHmxS8kg2O84dSjVxa3wBcwyqik+QaoMbff2u5A422ovom719Ro31UZuKmo+M44Gh1BSytgAKWG5q+5xV6ka6QZasrGFzLThxkzVWNRdVC3qUtg7usI+vO9sdlsytRtcmAlWZ/jGus8ppayQPxuli3ZZJ6jZSa1KCPgnGKmqMeasQ2McwRECHW0mTf45ZbVCYkdbpCNs27GVzLGgJk1YVI6QSlLYP7qnoJahKwCExSfzofaV8R5KGV/xZzdpRsAL22TVn4PW29RoRK1lAhpVmp0jB8lDoJdrwh2szZqrdPH7eINbH0FXqlVU2bvLFVTXlESIY+VQbXMvQPl+WnHYxEeZDapgobXxwPwAKSJHgl7ORjaIDUUCPXdotCuAJqkh06Sa4RejihknGKj6EdqZFwq9qpEU36KNFNb5nCq4AClkjGkixT1AjJXE+CwbUsB0SGXl4wIpYmqOhwI0dqbXErmZ+mvZf1nII3k/rBLM3FqSwxpViUNCA+Zo2t1ULza1RUcvJ6LR0tRthSjcp44ZaQZbQLtkofY53MdJUARx/JbfrHhjvJVjV1hG6Mj49nKNoMrmXoDz/LT7t/KFTZ7SlqHdlY3vVcSeuyQ1dQooPARGqLCMUb6bTpCAJ/lBmKhfVS67XNNbBSU+dRcTbFoMMm1NQB8ZqLaJWQd7RVOiAfnHATEY0aQBuEmxoUckmEvCGg91z/d8jEcoVvREajGUc3g2tZDogMujxe87ay23O0wfHm2e7nSoRSE1xTZBrBiMhFPWhM4Z1zTRyWW6AJ/QZpcI3gQiQSDSipeGlGA1TM6cGXpId2pAZ9qb5BOJMaRLff1t955pvb/1UlyvNSmRDEu3GbNFMAZ3Atg3742X+q/UOhZrtYRKqgzv76aRvWkVp26ArSP/XMSkY3qZ/vCMWHHgzjXBNQ4xYoVnqX/KFpcE1iDYEGWKGPaEgfaV/eSNjmu/M2H6z2a6pQ4hp95JYp5Sq81/mvz3qEcMs4tBlcy35YZMoVhkejnYMj5e3uAzV96092Pf1hExI/uVLjhEqnTYCjRsK9VDsUayGDa+QPzW8QsON+gzS4ximDtmCNLmZNDyB9j/5QvEc/nnqSDSOWSQ1CG+UqIBMLaEPyvKHXMuXXZJznPN8BMj/tvvCFLs+Bmr7XyoT5qUJNy5HiPJIgRR+pkXCwtJV/jM2vEdRE2EejqIs7Ja4RXMAOQhvvp04OIN5OMZg2pThIsjESzvhHnowFy/RPV26+1/mvrxzjpNrm+XFJ7+sNvZbefTJGzdodCI9GezzB+h4fX3KF1mZPLdY4m6S29DEh6agzxrWdyjLvEGv5DQJtO5SYj231ps01ah7VZPRaQu4QcahBw6gnRYMGT7pRLyKBpZfENR4U8tt64S3lqg1O0ll7FmbswAbXZuxWGgea2h3wBSP1Pb7ibx15569SiY7FexuppJp+Roz3gE1EMWoQs1L0YFPc/BrpNXgMVK5ZhB2aNwmugUqCOxpKiFOAEX8nTadmU2m7EIBoX2rQ7jRG3VfJYeBtOhMaiVOKe4/Pxke9EJTqpeogG5q+/6znuy7f1P7Ic72XwbW5vuPG9/E7MBYVZW8rOtzbL4rVCVD2dvFeEXhBIR0pwCRBjbOM9krRoPExvUYrUU2PaypZNEKpEFHwASQRodSGMpIgKMbE9xD7SF5JY2hfvmOywcQ4qUHjodqANiTPv9R8a0/bvzuGbvAFYvifckG1Da4tqD9HrpwMz2YXa7NbR9bXDD11zEZzagQsohsxiIs1YhaNTziMdyZsx3FNivMQdujk9FpCqJHC4oSiTuILp5J8nPh8UnWrJtCIa7FDsfEEQWrwL+JtnBKXbEie/+MlsTzzuX4h2VzhhV4CxOBarqBkQV1neFRks1fbvAV19s1f2J4vaaN0giUHmqWMgtTwSsgpaReMoU6pkcAOJbEGp8EkuUamH7Em1tAwlJBKNEwmGuk+tjsNlhr4SJ1JD5X8mCCvXrL999f/3tP273PXAigBEozEVvZbUE/X+Pi4wbWF9hfJifMZi4o0qU+bnOv/9/8QeYu12cn8JBIl1Gu0Nf0GRiZ8V8Ua1f6mCA8KXpsk10gTpWgQd2INjVkcTLGthCHJPo3v139jsiOkGCk2KSeDnHkqdoQSlaKCm4K2hVz/w+BaTnBkgVwkKkR6g2KBgs+vuDZ/YUOOFBb9FHxRoiuIZdTgPCK1xTt5O+EAqZN/lI1QEmvT4JqeGnE98QiL2wRsaQOSqa1k/XqK6Q+ebF+5XzkHaDeEtj1n/uG/v/43BesaXFsgPyvjNOb5DvhDozZX4FK3KOS9sbwL2exIJ4iJJgUrnGjCTpzRVxzUeHKoPtNgSnZoQpToiZOih46QbAz108hJNWh3qSF/ZH5SLJ4gsqxafqR64vP8PCX/ekOvJb83xpaZvgPIZj9Q0/fK8fanP2xaduhKTKkh81zNP48HGd80/baESPUblfJEeq6pCfAz5DeYyGYkNhFfqCeuoak5GkaNuGHJvy7xMN1hxTAFbY9bbolG/Z3/qhK58ZhlW8iOUYNrM/3bNY4XfwfGoura7P1DoSbvjYI6+7rPOtRljHeLIDW1muP0gTXlI6Dmmj7CQxVrU/GHEmim1iDuTLi7NED6SMeZWuO39XfAtd9a7qDu7jPf3H7O/MOGpu9P9f3L4Fr8k258yrE70D8UwjpSBXX2jeViHSnEc6hQoyWgpgymae64W8l1n1GuTY0jtBfhSZ7z0kkwaQAdYcoNvqN6cGaN/vab/0cBHwbXcux3bFwuuwPBSLTbFcDC7FI6QWxObZpgmubuk+Xaxkup668BBxIgCFXpNGhfGkw9+gaNmZGGdBDSa/CQrqwVC1xtaPr+XP93BtfYY240c+MOIJs9ouR+Xur25J2/KgepzbtMIxpOlmuba0Qy/O7GFHUl9fRJsydumG7CS4aOTr5JA+KOlnwwH0bt2KE0xyh4bXAtN37BxlWyO4A6NojnuO4NtQ34K7s9h+qEo4Aib+d/Qo2IhsZkubbxUmqu6fUaMYKoMf2GaiQmpxV96YQN/QD54BphV9TcNLjGnnejmQN3AFAbi0Yjo1G7L1xt837a5Nz8hW3dZx0LF2pYWw+Ta9wfShWKttcLikl57yn1WkJmJeuUCZIGpybcBQP4N+p7iGUJj8a3UhsNg2s58FM2LlF3B8aiYimpxr7hT5ucr5V1P1zYESs6tHBsTy7ZEuo1cobquZaeXiMcSHyhfjToozRMwg3/mGKXZMfku0iM45uStfm5GVzTPfJGRzbeAZJp4VFBNJsr0GwfLm93552/ura4dfHeRlGfg4hGDU6W+W0T13jGezKuba4RBYtS6jVOB04E6qeGhJjU8JL2Sv2Rf6/+sNK+0mDaigZ9xHEMrmXjj9i4pkR3gGredg6OXOjyFNTZ3zzb/XxJW6w+B8y9+eVXsm/nXEPULhmhO60mSa+9cUEUmEzCNVT61nNEAkfCAfoxElAS7iWhJ/VHHCHhcVJ/Ow77uPm2Mb+W6PE3+rLxDhDUrntDKORN8RxiHalkNFk4/Qm5Bu22vT6Oa5trBNSS67XHLbdW1NzE759DhNqPm2/jRT1o8F2kAbQLHyPtns7HFMfhR5a+Xc87Q69l44/YuCbdHQiPRn1KKjvqDv25tBNeggwgGtiamms7LXF+gzcuSFxbUXlrtfU/VIIRXOMQyeg2EZPEo8E13S/A6MiuOxCNCqI5/ZG2AX95u/togwPpBCKRYOHIsdRnQklUySbXsBhVnlngDHrtrSpRaVKLXyOurbb+h/RaRrOMn7yh17LrJ2tczUR3AEFqPZ5g24C/tGVw+8XeV463U46UcBRkyitFBhVNrm01m/LMYt0W6DWlRhvicolrqFNm6LWJHpy52G7kvc/FXc7K7xiLipq3bQP+ig7h+nyxpD1Wn4PCwTKokaCcJHMagGuk1xT3gsQ1Q68tnOfc4NrC+VtkxpmMRUX150B4zO4LN/YNl7YM7qvqfbXK99Qxm7pYegaxjJ9qOlyDXnuryrS1Tm+HZrdeI3+IMb+WGT9U4yzTvwMoOoQgtdprPp5O8ERxl4hT46TIrLaea9wZqtdrey/ngl6Dq5ScBkbee/o/FmNkJt0BDrWN5V1xhbwzC2R0tmrxSGusKq8+KFeaX8s9vQa0ray99V9VN416Hpn0izXOdcI7EIxEr7oDpNTWFrc+XNiR2eYnzwmlUrrENYE8pVhuruo1yR9q6LUJfyPGgIy5A4i89QYjPZ5gpbI6Qd75qy8dE9nsIvKWhE+GNrgFSvkGJOJUrtUJZ+jmGuEPTT6/hnwDHieR6W2KX8OFrKg26nlkzM/WONEJ7kAwEu0fCnUOjpzrdBfU2V8/bXv2oxZ4P7HcZ2ajjXMNGVQJ9JrCNSRRvVUlLNZE82vq8nRaUkGmQ01//gbXJvipGJsz6A5ERqOU+Pn6advTHzapiZ8ZKtCk05a4FlNqPM6jThVrm2tUvabj2sraW9mn1yS0GVzLoJ+tcaqJ7wAqqSFHCtnsUGpZBTVpfi1OqSXimojLNYs4Dx3XVlv/k/V67dGLPxpxHol/LUZvRtyBMSVHqscTrO/xlbe7D9T0rT8pvJ+xYmqS6sncj6TXeBkPVPKI5RtMQq89VqUmt0tiJws+GlzLiB+vcZKp7oDTH2noHaLIW3VxvJ3WbJhT4xTmXCMjlILXUCx3q8a1ifSaiM415tdSPVZzsc3IN5iLu5yJ3+EPjSLxM+/8VaQTLDnQLCJv9zVltpeAEw3tZFwjH8K2emF4whmaxvxatuq1x6puG3EemfhbNs55nJZcgVLbflHkSMWy2fdeVrPZ9XTI3J5JcQ1xHtvqk82vZbdeM+xQgxEZeQd8wQjWMP60ybmpwoZ1pGLLGGcuvFKc+aS4hqoeibhG/tBs1Wsip8qIX5vZnzWK6NMxpY/UbzSmeQe8wUizfbigzv7XM7YXS9jiePAbYvopBSMycdOkuGboNWNd5Gn+xpBlPRwIu0YirvAN/vIGI4HwmC8YMQA3zZtMu1OJDqzNjnQCdU6NoLa7UWRN7bRmzxQbLkefZgBPKKbY+PyaodcMrtFvZmoNrG/kCN3oGLphcUToVW3zdvnGO4ZuXHUHhgNhVM6Z2lcYe42Pj49Fo64RUfMWOVIby7vWFrfGVvwkFyGlT1IP8Y56MqJBohJnS1Cj4DXuDN1aJxYPJb+BodcMrk2ZGlFlbd3hQBhE+8oxXtQ6Qq9K7w9fOcbP9oS7fOOu8A1Dsk35PtOO/UOhc53ufVW9co7UTquaAUrGmp5u1JMRDYm8/Jw518gZKnHN0GsG1+hnM2EDbILh6Q+NCtszfKPLNw6i5Vu8+RbvJvPQJvPQhmofPha1jnzlGLc4hIk6HAgHwmPh0SgxjhoTfrUxwBeM1F7zFdTZ/3KyEzlSgmX0+ydRxhGQle10uJZSr2VZEXB9IJ7hD500LpC1I2k04Gx9zdDaM561ZzwvVLjRWF8z9GqVb0O1r6TRUen9odU91mwf7vEE/aHRYCRqWKbp3H3KZkeO1F/PqImfyw5dEZG3mEQjumUlyKSLSodrqfWassheVvpDcVEG19L5ZcXGjEWjkkbbUO1bXzO0+oRzTZlreZl31SnfqlO+1SecaKw65Xvkg4ENLT+uPeN5tUoouOJvHY19w/1DIddIJDwqalUb/6W+A+HRaLN9GF6CP5d2IkgtBrWcIhoAlw7X0tNrj1Xdzo4XJBugtrLmtsG11L8peWtkNEqGZ0mj49UqgbD7P/YuORVZfNRz/8feu48N89cvToeWnIosORVZWuJdXuZde8azodp3wtpXe83X4wn6gpGIgTb5HsufXSOR8nax5MrzJW1PHbOp2ewk0zC5rp9WkzRO1nzkyaHcGZr2/NqKyh9hh4JoK2tuZ/oLF0LW6Mqa2ysqjbx3+XeU4DOE1XAg7Aips2mYO1t9wvnAcd/dx4ZNxU719bHLVDyovJyLSkfvOh6863hw8VHP3ceGl5yKrDrlA9qKWkcudXvaBvzXvUK4GTap/qaHR6NOvwi+vdTtec9sR+StGs/BoZZreo3EGjLek/kNdHrtsarbWBd5tfU/xLVMJxqdP7epDa7pf02JewLhMddIxBG6UXvNV+n9Id/ifbXKt6bM9cBx39ISb4xoH7tM9NJIt6h0FK/FRz1A2wsV7lerfLusIyWNjtprvqvugDco0Jb4u3O1F9nsJY0OrPjJ4zlUdwEcBXjPGjmW+kIksUZ6bWudiPDgcR66+bWVVbcet4gl30W+gTa/RlzI9IbBtalwIhgS3kyLIwKorT3jWV7mfeC4767jwXv/qYg1wpnUAN2KhK0K7faL06FFpaOwSTd/YSuq77/U7enxBI25Nv6H8QVFnFpJo1iY/ekPmzjU4hwFueMDBe9IrPHItfwGFWqca9BrrP7ayprbBtf4M7YQ2vNZz0OINQVqRa0j+Rbv+pqh5WXexUc9Mduz2BmTaRLXhFkqTFSySUG3JaciQFve+atHGxzVNm/n4Ig/NBphISAL4b7P8Tkgm90bjHQOjnx+xbX5C+H6jC1jLJmfuabXkok1iWtYPBT1PLbVm/Y1YZ293OHaY1WG3yD5Dzc8Gg2PCu9nx9CNVvdYUesIXJ8wP9U5NT3FEvbouHbX8eCvCvuBtk3moQM1fSesfRZHxOYKuEZyNOlqLBoNhMdsyoRaUX1/3vmrL3/SEVudAPNonGWEuRxxGpBYw60gI1TPNW3dlp/87eslB5p/+q79weOR3OHa42aDa8m5Nj4+7gtGOoZuIOZ2k1nEpsH8vP/jJHNqCaGmSVeg0nUAACAASURBVDZJtcFVuvqE88ky1/oaEccLZ4LNFcjNuLaxqFh1pbLbs6+qd/1JYX7Gat6CXOQikBqp56SyZquea0AbJtfU+TUzrUe1aEvdfVvMyw5dWXrQ/ovTodzhmqHXUlEtGIpc94Y41Fad8sWZn8kolqxf8yTAFKV3skmBNosjMhwI48xyJBshGIki+LbZPny0wfHK8fYnirvg+lQjb7OGTdO5EIlr5A8F12Clbqs35dWa3riwaEvd0p3fPLjX8nBhxyMfDPyqsH/12Ts54g819FoCrmENSpifHGpxc2rJyDVhvwgBEdNtBLW7jgch3JaXeV+ocG8yDxW1jlTbvDZXQAoByTLG4XJwt51+MaFWbfMebXBsqrA981FLLJ5jOiDIsn0lrnHXwU6LWBd5a92i/zH/LL/+oX9YVx20rnn/8vMlbS9/0vFChful5lvPfMPiPCp/zJrgNXhyuT/U0GsJuBaMxCJvEc/xQoV71SlfLKRjQnhNOEA33fbLk/4lpyKwSZGWAJu0xxP0BkVaQlZapgS1Zvtwebt7V2XPn0s7n/moJRZ5m2VgmublJOQa6AbDfM/l+7aYH33722c/aln3WcebZ7sP1PTtq+rdZB7676//Hce1mpuiWHbmR+TSJXCuGXotAdfCo1HksQNqT5a5lpYI72cs+HZCbE044Kiq2iQnKQ8B2WQeOlTXV6mEgGRlWgJKoTj9wlVC6QTL326MmZ+gQH6DWNx3d6PJaHCucZzttJp2KMXm9ly+f0f9HwqbXivr3lfV+2mTs7LbU9/j+8oxntf2wx8bVDsU8WtZzDVDr8W4RtnsEtRWnfLFvASp4zkmxJk0ANNthY67jgfvPja84ss7dx0PQrgtLfGuPuHcZB4qqLNXKmkJdl84m4QbrU7QNuCv6HAfqutDOoGKMAlkJHO21ccN2N0oIlFpKxrZ2gOyYxJthwKyHVbBeq1n8d7Gn++yrDpo/XNp53tme0WHu7FvuNsV6PKNn7sWeK/zX8+Zf8D8WrZyjSSbkW+gcm0sGvWHRh0hEXn7lWOclNqqU77lZSLlU0yKSVSaqY+aTXr3sWGadPvF6RDZpLusIyesfZe6PZ2DI05/xBeMZLRNihpN/tCo3ReutnmRTrDusw5E3oqY292NIsqUaJWtnEr/ujByu0JwUIyqAWuRLssOXVl90Pr0h03rT3YdqOkrb3e3DfhtLpHH4gtHK7s9nGuPW8R671mm11bWxBL4Da7F9Np1b8jiiEhBashjV+NvZwpk0nE0J6neJqWkK9ikF7o8zfZhpz+zU+VJqTX2iRIdG8u71rx/ORakRjjbezmObgmlGccfdszWHog1yDRhj1tN+5ru2t+ivuc3PFzY8VxJK2K8L3Sp/wR6gyJJptU9dq7/uw0tPz5n/uFxi0ilWlFzc0X1TZqZyr6GSOw38t7Hx8eR0F7UOsKD1O46HlSJNntiDYwrdpq0GTeSbNRYVDpKNilS5V0jGSzZgpGo3Rdu7BtGOsEzH7Us3tsolvvEzLeeXxKqlMQggbx9Taqmy/oesWagZnEjYE3hGiYilx268nBhxzMftWws7/q0ycnrxFDtmXP934n5tUs3H7fcwmJU2SfWJDrnNNei0WgwJLLZkfi5oVoU20DkbdJsdkltzexHXQgIokBWn3AiBAQ2abN9GCZGBqXKw/XpDUauukV9DhRTe/mTjlUHrQJqJNN4gyy1fU0J5tEkcxU70i50nNQ9erM32XEkvBJo6IsSno9+r8n26HVrfgMn2hPFXc+XtG2qsAFqeDBg7INrTd4bxDUy1iQKZNnHFZU/PvZlDtcpGg6Eba7A2Z6wpNSWlngnyGafWZzhaEXKFJ423UZ67a7jQQoBUdMS6vvPdYpZYW+GLHMVUTLSkMpe2e05VNeH1Qli6QTc3aknEaaWAA7975z6aZgEHfTjsHRwanAw8U6+Fx/D5SGNRyeGoU2b0Cl9TAZBXB2kqLQLptL2Xlahtsey4p2G50va3jzbXVTfX97ubugdsvvEimj41w4FUB2hG03eG5/1qHotu81PTuec1mvDgTDm1F6ocL9Q4YZSi8VzzLb5mRCO2nSbFLsLuiGf9PXTtn1VvRe6PNe9odgE4cJu+ZRU9spuz9EGx+unbZROIKaKaC6c44Pa+HlTkAf68fsnxu29bAKGpGGEBo683Y3qYByKOLW7USzKh12k8crqwvJ8H3bHN9KZ0GkTW+kc9D3SVej3pTsDqO1rMu29DL/n7w43PvtRS975q582OZvtw1fdAV9Q+JQoeDuXuZbT82uR0ShyP7n5GYNaQujMWadGN67aVnx5hzwJcHtVdnuQJx8Ij1FlSnqyFwLoED2D8pAXujzF34p0gmeVyFvV9Qku0A+Yfvy8QbQCI3ZaBX0w6wQWEDv4caRNkv6SyMWZQptwWDo4jeH9Kb5xd6MIK6O90EAProirPGzl10VXrSm1xXsbMZv2h8KmV463v3m2u6RR1JT3JnKRJ+Paisofua7J1nYu6rVgRK3SgZAO1B2KpRPMi0zjxIRBqmXLA22IAqHKlEiV32UdKWodqVRCQHxKWsJCYBmdA6JnrntDbQP+8nb3gZq+9SfFip8wP2OxV4QGPUGAGPzCCTdcWHHxRbsTdwgrfF9qo0F7gSy0Ff10BGkY0Uoav7tRODToBIjOuEa6UtqLBiS8EMRzaLbnw4UiGua5ktbXT9sO1PR92uSs7xHV5BOWks9lruWiXsPaulSl49Uq35NK2duFotQAuHi08RCQX57083zSV6t8m8xDl7qFTQq0LZzotsho9Lo3VN/jK20Z3FXZ85eT6pIri/eKpALBNSrLQT94+p0TR4AAjjZpEycC8YJ4RD3Yiz5Sg3bXHxYHoZFoYBg/GgkrPoCLNekIGM+PQOdAlw9uMqX2cGHHE8Vdrxxv3/yF6iLA+hjJcuyScS1bBZp0Xbmo16hIJCzQuIwCrpsWSFuzSU1KZgJZpr84HVpa4n2yzPVqle89s0hLoHriyZ51UlJz0BDOOGVt9tKWwX1VvYCaijMSL5xrFE/Pf+SEDD10JFiQ54FzhxNEfyiJLHwwnUNCtKET4xPuRXjCV/DxaOOdbE8uFek8NbGGfwYAte0Xe0saHc12YXum/iPmMtdyUa+Nj4/bXAGyQKdSJHJeeKfQjQs3hIA8cFwss7C+ZgghILBJnf6IPzTqD42mfvRnaas/NBoIj9l94YbeIYLamvcvq9nsXKbtVJwGyAeSfvDAFn8n1iRsgCAEBRwNnSSdCIXSMOlbcD76vWh3NHAQqZP2InLxg6NT38OviCzc3ULVImJ5bXHra2Xduyp7SlsGq23ebldgwj9uLnMtR/MNunzjRa0jZIHG0j/nBVgTfmlym5TQhhpHr1b5kENT3+O77g35Q6Km+CzBK9lho0rN225XgHKkUEwNUBN6DRna9K7/qSOjm37qnAJSW/rId5E20UfOO+pMZ0c+Rt+WDkUfqaHfhfdgGCOa8DYocWpPHbOt+6yDEgmwgFkgPDbhXzYZ16BlsvKdTNEc1WvnrgXyLWIpz6Ul3vs/no9QtQlZlmyAZpOSNYoGFQJZd7Z/X1VvactgY9+w3Ree8OlPhqcp90ejIp2g9ppY335XZQ9W/ETIlZhQ214vuLbDqkZapPmz5wiYkTapKukE9ijxIvr3Cb+UD5js7hhPUNNs82WHrjz69revHG8/UNP3+RUX1i1Lfwo1GdegZVZW3cqyF/fzgmv/VXVzQ9P35/q/84Xn+l/39H8+M7lui8URybeImalpFb9Nhp7Z6Idko/dENqnp6OCSU5E1ZS6gjVbwQ42jOXAmUM3b2mu+T5ucmypscSt+cqtNogmHQua2t9eb9ERL3SNNwymGJwVzPFHc9f8Vt22/GPtXalLpJcm4Rkot+7hGlyYa1Tf/2HBnQ8uPucW1DdWiUIeaAUqG3mwgaaaOSSdZ5DQVaWsw6+ru0nQbSoqXN/cjFMA30TRz+v/CJByJKt6dgyLo5GiDWBzvpWMiKOGJ4i6RJrUQNNrChCnJNA1qCOZ46VjHxvKufVW95e1uzCo4/ZFAeCzhzU/YmYJr2SrZVlbdgmrLUb3W6h4D11RAcPSQJvrYJbbO4zvOKtk5YKtOuCEEZNUp3+oTznVn++FMqO/xTeonkfB3MmFn24D/QpdYcuX106KQ97JDV1TzE7bnwsTK/J4V6bWdVtyrB/da4PdEPklj33CPJwgv0IT3XxqQgmv42WeZXsPlqJKtWhQsyV29loBcnHHz2+YCjTOOo5ZpNz7jtqh0FMKN0NY24A+G1CQb2KQzOPUWjESd/khlt6egzv76aVtc5O38gmMhf7vmq1XzPZWyHE8dufzSsQ7INJtLpEZNeQIhGdeyEmf6i3rsyx9zcX4Nek14QgkTRLFkEmkB9h8dVNGsCDeOtl+cDpFNmm/xUlqC0y9WS8C/7dNHW3hUEK3bFbjQpUINOVIQa8L8TD1flnr6aWa38jOZ/pFxtEnNqdEJaEQzaZEcZHu+eVbU7y5vdzfbh6c5dZDjXMtRvZZvEYW2HzjuU01RCB894wh2c9/gGOUnRv04Z3zUkq54gJuUlgCbtG3AP1OVKaPRqC8YgZdgV2XPa2XdcSt+bq8X6QSSYuIxHGjP5TvBaEa+FHCc1KGQYqVltoqol92NDxd2/KGw6S8nO7df7P38iqva5kV8Nf3zIxmYaX7Mca7lnF6LRsWyLIjzwHqgsZJExAjiCEFkHnvoq6nBzxOdzCCVCoEgLWFNmWtNmWv7RbGWR9uA3xsUk9CT8q8l/DnZfWEsufLK8fY/FIpljIWXgIgGrhHauEqalNLhO06nPeNfOqkD0mwaEgkUjwGg9ufSzn1VvRUdbpsrIEnpKWvqHOfaoxeV+ms55Q/tGLpBcblqElWhQ5TG5RSbe4FG30jY4ufD2xLgaBMayW1STLeVN/fXXvNhtQR/aJQKgSQkl74TFSJRd+hSt2dXZQ+PvBVQwwtQ4xgiwBEOeANiCuOn30/STH/A6R+cjqA/OL8KOgdONIEzUUpzyYHmFe80PPtRy19Odu6q7MG/N9O0PfkfK8e5tqIy9+bXHKEbtDiLnEcFNAAxxItkHJmzfvoiaiQ8Nzr5eD+pCNP72PXAcRHasvaMZ5NZTbrCekXeoFqJkP8qUrTDo9Gr7gDlSL38Scea9y//en+Dms2OQtVEt9Qs03MBO85Iv/4g6NH3T/ZL6Qipd6RrRzAHIvjyxY16uFDcNCSxF9X3Y+UK1FBLcecntSnHuZZzeg1/b1pMD0WKYqlUnBckoOayQWySGtKJJdxK1NOm20ys+i6m24huG6p9J6x9iGKfMIma/6Iio9G2AX9JoygP+WJJ++qDVkBNrDcuLFBLrAARGaQkcNJpEDWkhvSRDpWsnwbwRkISJTtCsn46YLIB6Mc7VBvFqSnZUWvev/xaWfd7ZjvqHvcPhWZ8EcUc51rOza+NKbPdPZ4grWkAB0JslRZCBmGCM2Uu29IJSB/5mUib+Mf42F3U3V11SqzkwFPl/aHRiEgnTZpxggqR/tCozRWo6HBvqhDxHCveaVi2xyLm1EQ2u0VUlKVaHciaIgSk00iNCf0Rko3Xj6Qe/S5kLeo30V4JGyl2pE3AqBZzi6qQTxR3rfusg1bDc/qnHszB/72R2jnOtVz0hwbCY4HwGJZrwUQbrNG4XFFOt7nRa/SNHFhSJwErRYP8pMyZwENAeEnxTeahotYRpCWgOr7086CPtOLn51dcuyp7XixpB9Tu22IWZRQlohHd8MMmBwKxQ9+TUEmhMyFWko2nr9A3gBt9v74n/ZH6fdFDAk2DGgqovVjSvrG8q6DOTqsmTidIjf46+kaOcy3n9Nr4+DhW6wmEx6661YJFr1aJaj8PHFeWdpe4MF8fQa4U364fQD3UYGhbVDpKFdwWH/XwpZfzzl8taXSkLoBj94UvKUuuvFbW/VyJUGoP7rX85G9f3/P3OpVrW+sE3fSAIzbxBv34OZ5I5iAxnnBG/RINiSnSeNqRUh14D74x2TFpZIpj0vemaGBybWsdBXM8dUS1PVFrqMcT7B8SpUCnHHmrZxnvyXGu5dz8Gv3tEX7V5Rs/Ye3Lt3jX1wwBbcIgJZocHRQre87eC05YvUCjEwCh9O8JB6CToEYN9CvOBCkKZFHp6PIy77qz/ZsqbFQsH9aoMEoVs3QsGg1Goo19w0X1/etPdv2+oPGhf1jv22K+N88sKLatPu6VEG2SfANZAA6UryAA7bDGZY9TPwjC32nyTtJWdFiatif60MGxC301H4Bz485c+iJCHu+R+IgdFbHGEwl+X9C4/qSQabXXfP1Dockme9JDm34jx7mWi3qNHo7waJQm2vItXq7aRFAbsWP2uEYJA/Rd1CAqUYM2SRykfhpJDdqEhuJPkGJ3KeNq8xe2E9a++h4RAuINRvBy+iOdgyP1PaJEx5tnReTtg3st9+aZF21RpFme2ZSn2KF5NTG6pUDb9npR/p9rNIBA4ggfAOhgAAcK76et6EyxiY4g7ULM4kdI3SlhEYBT3jnRnigWJQBeK+s+VNd3rtPd4wnCRUAP4Sw1cplrj128nYvza/Qk0cIiFkeEIj+eLHOpQW2Ej9nmGkGHvpHAJDXwkTr146mHGhgMgGqFQPRo4yEgxd86aq/5mu3D3a5AY98wVif46xnhKHjoH9YlO2oXbalb9D+KWNtaJ7gGtHHhlgxtANaE78S+CUcukAEQiZhT21aPOrerDlpR5xYV8apt3rlczToZ1x67eFufTZlNPbjARy/mXvwacW18fBxuvuFAmCI/YilWxAJSPbMBOAIQb9A38k6OM45CGswH8DYNoKPF26So3UZVQDZU+wrq7BUd7kplYfZNFbbnS9pWHbQ+uNeiQg1iDfBKjTYaQ6ZowgbXcSlQRbxDAy5XqRO7J9yUTifF39FhE54PPwFIPBZ8u+zQlVUHrc981PL6aVtBnb3a5sWqOlg4CglSKVzP/Pmccjs3uQaoPXbxtjq/llN1JfXPSjQqVt4D2koaHVQifPFRj1ininAwS1yj41MDVOJsonayTdIADj79Lvii+PBdyrhC7O6+qt7ibx1556++WNL+6NvfPrj3m/u2KObnW1Wmt6oUmVajOgoIbXrhBhE3Id2IHZwXRBZq0LAUjUkNlo6j35d69A3aV+MazM8lB5qXv90IpYZ/Hpz+CdZY0T+Q0+9JzbUsVm2k10SdohznGoLaXOEbHG0vVLhXnfI9cNynoq3IOVsOBM4grq30/QQviYDSyIQgwxigmcYraEMUyOKjnvs/9iJw94UK97qz/etrhl4saf99QeOyPRbh93zjgvraXGPaXKPSbfMk6ZZQr6GTSAFhRR95A3xJobwwWMIQH5+sTd/Cv4I6EzY0opm2q7bnw4Udz37Usv5//2/7xd6COrFIWNuA3zUSW4Z9+sBK8wjJuLay6la2Qo3E2sqqW4+UK/mhOc41GKThUXW95LM94aLWkU3mobVnPMiNV30Is6fXCDQSsAhk1KAB2CX1Rw44tOkS6Bs11Xb/x17Efyw5FXnguG/VKfF65IOBZYeu3JtnjuMaAEdoIzmGRsIZNy7cUqBN2kQ0IU6hJwX4aJdkDb6v1OYfaXfCHJ0b+RMwoaaYrsiOerGkHYsWV3S4G3qHEBI4/foCabKMD0vGNf7jz6ZpNVwLrm5F5S3DDuUPg2hHlPzHVvcY0PZChXtpiVIxfJb0GoEpGbkS9nNgpT4C3x0sk9CGTibcIN+wwvxP37Wbdiur4W2rFwKNJNsbF4QpSmjLY6oNZil3I/A22JffoEa66ePdCB+gjEQ0zH/xMdSmSTrqoUaKTTRGatAuRFKJejShpgSUIOXz9dO24m8dF7o86SyFJz95M/o5GdeyVa9JvDb0mvw0BSNiQV+bK2BxREi1LS8TBtrSEu/Mm6Iku0hAUQ9HErWpoR9PgNMfAXvhnbhGDezIkkkXlY6KOF6E1wFtu62CRLBAOd0S2qSQbCmm2wARgtrmmrgELEIMiSbOONoqNfjg9DdJI+mj/mjoge2ptOH3fLiwY/VB67MftWws7yqq76clXKdZQE1+Lif5ORnXpN9/lkk2ujpDr8nPC8JQg5EooY1H7c6iQcrdr8naBCwgKc2PNAwNwhk1aICi2gTO6PWxy1ToNB3uN+0fMO29LOgD4ba5Jk67kXBLON2mt0wR0Iv3PAa1ZIDjWonQM8cNbn7GT6j99YztPbMdiQRX3YH+oVB4NDpLiQTy85rkczKuGXotyQ2bn+6ZXGcvnSvA+r79QyEKbVujxLWp2QhEhCxrQLhp4bsoByIYB6F3uF/YpHsvq2jjqu2NCzGblKONpt4IbaAYf99WL/blkJI+8k3z2CYFt70eq+EtO3TlGUWmlbYMIp7ZNTK5VaPSeRSnNiYZ10jRZJlSM+bX0n1OotGoPzR63Rvq8o1bHJEN1aIGxvIyMbkuDNJk2iejSXfEIQxtLXwXqk01SIE2xSa9a3+LsEk3XhI84nSDTQqE6ekWQxtSFMyCZSTWwLIFSDSGM+73RITaX8+ICDVkRwUj0fm1PfmTnYxr2arX6LoAbmN+jT8Mchto47lWlEaqBn9kNMUSnjyhjU26xZml3CbdapadCVy4YT6OJBuFuW2rj6UoqGlYCuO21auqbYEwjoimJF2p2VF7LEQ02J6NfcN2XzgQHpvtUFv56Uz5ORnXckGvrawy/KHJHw5K//aHRim0jeoaZade46QjL4Qy16aqNtikhQ4x46a3STdeigW4IXaXQw1tqDZ632lVJRuE28LRa4AaJYEqdW6X7bGseKfhuZLWjeVdnzY5UZXTF4z4grEItQVCt2RcI12TfXYoR7ah15KDTdtCuVY9niDiP1BlV61rxFmQZe0jDhXfmhtBo9ugmHE74lTRlpdSteUpQbwS4PLMYhU+7jDNqxHrV21W3uEnBePIZzrHM2uUIa+EcaDKOfd7NtuHpcC0BUI0PLbJuMZ//NmKNsSv5dz6oRqvJvF/LFbiDUZ6PEHKkF99wqlG7WYZznA5MEgx3YbKmly4oYdU24QhIBLdSK/RpBti3IhuZJOCa3NGN7I9Na5RMMczyhorSCRAhBryPSfxGM3h0GRcywW9Jup5VObeelRTe7poHaaOIbHsC0Xtxop/ZKUngSJOGNpi021HB0UUyBGncJLubhT6S4rd5dNtiOOVhBtNutFEGwCX36A6STGe4nhnW7UBZzA/lWm1ZYeu/L6g8eVPOlDntrxdTSTwh0Td9Kk9S3OwV2KuVf742MXbWf8y9NrkHjA1tC0UQfwH0Lb6hHNpiXCSZq0ngdBGUSAsEET4Tz92mSh2V5+WIKENwg2eU5pxg03K0UYmKojGVRtvzzjmwDWxXINVrNiwr2nFOw0vlrRv/sL2aZOzvseHyhxIvJvc0zO3o5NxbUXlrVx4LT9n6LXJP3CRUbHUORISXqhwv1DhRkKCWNcqK21SskyhSTnXaPEHQpveJoVSo9hd2J6ENr1NSlCDM4EUHKm2WUKbVqQItueDey2rD1qfL2lDMeHaaz6bKyDNqU3+2ZmjPXKca7m4fuh0niwyPSKjUbsvDLTxhAQVbQf7BOAKlXCwTHzndMb5U48W/6Fao8S1j12xtITtSnHwt6oSBLjFyhwp6aWSWcoZRzNumGvjwR+z4VLQHKD3bTEvO3RlxTsNz5e0vX5aTSSY2lqr03nSprlvjnPN0GtTfH5Qso3iP/It3jVlrjjVlok44+esRzMPbeM2qSLfBOYoLWG7XY3dzdMCd3kICBdupNo44IhuQBvptTwlzA1QQyftNR2DlMk0+D0fffvbF0vasQw7Egmc/og/NBqMzHN2VPoPa45zzdBr6T8q8kgkAAZDkeve0FeOcUpIUOM/JJlDHzOoQZKTNyDcCh1CjRLdlJx5zZ8wKITbdrtYymBrXWJPAkcbWakEKYoCAeBEHK+SaIUoEC7fCHxT49rWOiznvORA80/+9vWyQ1eWKWG3z5e0bb/YW9oy2Dk4YveFM8X25A9ojnPN0Gv8YZhiOzIa7Ri6QetaPUlL9gFhED6EBqmTti7YBk4Y7xT8Aa5RFIgUAlLEUuV3Wk3J0hI43XjeFek18pYiRUEE8ZoF49CgNCxUSZoC2pTV6cVSePuafr2/4XeHG58raf3rGRspNdeIkGk0+TDF52M+dstxrhl6bQYeumBIRJxT/AeVEUf52dhE29FBE8GLMLeQG3RuHG000YaGvhYIZtywLwLcdlriUuXJJpVcpRxtXLsBaoCdijYzQ5uWg4VdJkU3pSzHfVvMD+61rHn/8ivH27df7EUiQefgiNMfSyTIOLTlONcMvTYDXKNsZ184ioQELNmH+A/Ve0BKh9MNvCB8zHuDsIsTo490Yly18SuiWBAe5qafbuPRbUQ3rtoofJcYR9pNigXJY2jTz7iloJtUmXJf07I9KtTyzl+t6HDbXAFK9sRUQ8ZBDWEow4GwI3SjyXvjs57v8tp++OOlmysqf8yFIA/lGnN7PaoZoFr8IWyu2BrySEiIK0hJpCCiUc8CadD0GekynBidMDVoJLdJNW9pXBUQpMpjug0UQxUQoI3m19TlYBQ/KXGNhNtWbUE/SbihJBxs0m31ahne1FzbKdZ1FrWGlHzPZz9qWfdZR975q582OdsG/L7gPCyzEv8QzcAnQ6+JdVtafjzX/50vvHDDp+e6/trUnqxoVNTaJYMUKyTEnKREBGoQyySI0Ecu7qhztvei41ODEEbCjYs1uhxSbVo+qfCQfuxSLfH9AyKfdLc1ziaVyhwR2gh2cJjGMMfotlM5FLkUADigjb9LOViKXsNyBLA9885fPVTXd6HL02wfdvojpL6n9gwskL1ynGvG/NrMP4diui0c1ZcRj4va5chAe+H0EEDRwIkBXoQwNDjdqE0zbtwmBfK4cNPbpEAYD3AjIzSOtW4I9QAAIABJREFUbgrasAkyDQnz3I3A5RtxTcv9XLy38ee7hO35l5Od+6p6P7/iauwb7h8KYSX2+a1zO1OPY25z7Udjfm2mHiT5OMGQmpAgqzZODc4yDpH5HaPnLMk0anDMEdH4aVMUCA8Bwe77B9QQEMymSZJtQrqRZRpLS2BzbYhxwzsRDfEc+Q1wfd63xfxEcdefSwXUSlsGG3qHXCPZYHvyRzDHubbiyztGPQ/+PMxY2xeMdGuLv0ihbQ8c95n0LFhojCNI0YmhwYlGmMNg2kQzblrIbmy67eiguHaslrDTIoI2uHAD40idcbMUAg2bgDZSc2jAbSqUmuIhBdR2WkSE2k6LaWsdJtR+XyCCObAaXnm7Gymf/tBodsg0enyTc+1HxXuQrQ4E9eoMvUZPwgw3UGsXuVblzf35Fu/aM541FNpGRDjYJxymKhGcaiAIJwgG8B4wkffox0yhpzD+2+NOTDvDhPzC+fP3ImfsomCB0oxbsbK8dKHDdNBu4mkJKClOTlKEgMS5SjXzk6ON1vTjaKP8BEE0qyj0pqxIANsTixZ/2uSkhaN4VcgZfgjm73CpuPblnaxzjBKsf1yBq4NeM/wGs/cE+kOjjtCNotYRqLYEaCvUfupEN1BPkEIBRPGgOvVOgkjPFxojXA12MZ6jE22MwVYcnIbhyGIYToa/a1Dj304Uw5FpTo03aEyhQ2g0bpAKHacJt31NprzauExSohvZpJI0I0FHwo3HuMFpsNMiiLbTunhvo2lf04N7Rf3ulz/p2FfVW9HhztxEgjQf1KRcU6EGEGRNbY8YzgSylWsUdqjBtTQfl6kNwwoJRa0jPENeXf+FfvwAhPSxWEmeRycN4DAi1tCOBCbaRDuKMRqwsFUv+mLHUZL2aYB0NByTjsxxlrCN6TYpLQEIVm3SidISktmkcJWSXgPUlAk1lOVAIsEzH7WsP9m1q7KnvN0Nv2eGJhKk+QROwLVsk2yyXlt+TolfM7iW5uMyhWFjyrpWjtANWrIPCQmrTvnU0DZChtpg8k0iGh9Jm0h/AYIUGsIJRTvGbWWMI95JwCJyxe2oKDh+/IQs4504AW6TImoXx0daApZeJmcCqbYUNinCQcgahX9AqQq55EDzz3dZHtpvferI5RyxPfnDmZRrmpzJLlM0Xq+J8GODa/xxmJ02rZDQ5RunMuIvVLh/Vdgvgj8IEMQOUkkcK0ADbSIpR2OIdLwhw46xjL5OOjLfnYBI4KMefC+OzxGWsM2vkWXLx1UBoaWX+fJ9RLeENinNtcE3KrgmbE/TTiug9vSHTa+VdR+o6bvU7bG5AljfkxYtzsREgjSf0KRc06afsohrmlhTLm35OeESMfRams/JzAyLjEY52qjWruY3QL02Ta8RsKiB6bbYR62+W6FDTFcRcXhDBQo7JpFRGobD0jsfhpG8h58DbMyEOJM6iZgK2u563xnnJy0kP6mygAv5SfVooxg3MkLJ/GQLR2FFggM1Iua2xxOcmT9hhhxlAq4pikZBWxY4RiWxhklDQ6/N4ZMaCI9RybaSRscm89ALFe44g5R0DTWEqlL8ABxDyehD4CAGiZGad5K2JmvwLxVtTdzhIHQoSeilzzXuJ+WrL/O0hHRS5clPurVOZC9oMk1MqO2xPPr2t0gk2PyFrai+/1yn8BJ4syI7Kv1HdQKuZZVqU/SaOmMoInINvZb+czIzI7H4y3Ag3DF042xPGCsk0DLyMcFF2OIA4jRRAaRxR9ZridRZMkHHuakfAz7yd5l32lybJM1SfKSLwnQbT0ugVHnE7u5WVhelZFISbphxyzOLCkjb6sn2NO1rWv52I2xPxNxi0WLXSCQTa6hN55lLyjUoNY0CWWGNanotburQ0GvTeXymui9VoyS0qUv2qcDS+SJBE8EdRXwR+EiXESzoCNiFRBbvlxCJo/EBpA2xO3/X26SgYQqQ6TfRdxHaeBQIzgfTbSLdXSu6+8YF08ZL4qUVOPrJ374WXNtzWaBNqczx9IdN6092HajpK293tw34/aHRqf6JMnu/pFzjSk2lW6ZHe8TpNQR5GPNr8/b4QrXRkn1QbfCQ3vvPYTUATSWOpssK7KYCuzKV5hSAE6acQjp6P6xtTdEjyKjtSJYm9dCOGCa9C0NS27dIOytASg+v1D2EToQZFwtex023UVqCWK4l8Qp+9/y97t4885IdtVQV8vXTtoI6++dXXNmUxD6FZzQZ1xQzLR4E6lwb0U2bhk86B5dwwNx00kne0iYH1e9Vr0sh9fJzYjlBI35tCo/NdHcJj0bDo1FvMHLVHUCG/IZq3/qaoVjUbrGCLXDt6KDpsF1del2UolXa9H7YLlgjvdOwIqdAYaHuHf38HUcosMcdnwZQg74XXwG8pkZYwq0k2dA4Oih8o5h049NtPC1h46W48N03LizZUbt05zerDlrXFre+VtaNWkOXuj1UFTLLsqPSf+yScQ04EBT48k7sFYe2+E0xi1WdjxdH4PvOWVs6Sek0OIW/vGNwLf1HZVZGBkMRhLZVen/It3hRkPKB47641UjFL1/5zRcoRINkm/AdNOFAlHYh3KCfPvIG7cI79W2cmL4/zR6gDcKNokBQ4EjoR8VPuq/JFC/c7t9R/+Deb1a80/BcSeubZ7tLGh2Xuj1tA36sSJBrE2rS05mKa1/eIXUjlkYHmAQXNBGkcAHLJyfcuoINmJtVlic8DboiYNfgmvQ8zMNH1DW1OET9DyQkUMk21SBVpY2m1Eg6JRRikGbFg6rFCjAR3SQy4lAYDBuW5Bg/AvCEAbCF+TkQvKZPNz3aQDeySZUV/BZtqbtvi/nX+xtWKet7/vWM8HtSvmdkdOHWEZyzxysp1xiSCE+CGqR3FMxxWqXeykfOajv1acS2KudvzK/N2ZOW9IuwZB9XbXEGKbKm6J2Em0QojiG0OXr0sot6ipmRyzslg5Q2oUEsQ2OaRKOjIZMUFwtrVGeTmvZeNm2vR/Hu18q63zPbS1sGq23eq+6ALyiqQuas7cmfsIRcgzrT00dAgb2kAXwToVAaMwcfU58GtkK14WSM+TX+PMxPO6r81z8UwlzbLuvI+pqhtWc8i496Yg4EdZ5eWd2ORBPgpZ8+0097EZi4RgOPSIjxo+lBSUfgSNUrQeIp0WqyDdVZoTiFsS8WJ8Vs47v2xUc9Dxd2/OVkZ/G3jma7WhLSNWJALfb0JuPaHABofr8CaDP0WuxRmPfWcCDcOThyoctzoKZv3dn+NWWupQftd72vuCCPDsbV1CZSEGv0GCIhRtiSBhfYxTHRCTzRAM4+QFP/jXwMbZ2RBlEbPlPFmRBzlRbY737P8avC/vU1Q+XN/ZBpwYjww2RxXtRkH86c4hrJNKHaKkVorjG/NtkHZlbGj0WF9WT3hWuv+Yrq+7df7H3lePvTHzYtPWgXyQZHFL8BLDJSbXwejessrt047EAcmj772BXn9zysMI62YkfCHD5ykFEPQRNbpfepYY5zDWjjhUCODi4t8T7ywcDaM55d1pFqm5cSP2flb5OZB80prj128TbJNHDN0Gvz/9iiAqVrJNI24C9tGdx+sffFkvbVB60P7Vdqh+22iuqyhQ5Vr9F8kzDKlOgNUIAjDG0OOA5BTjS0ubIj/PFhHHCk7CShNzWEpd6LYtx4FIjCuAeO+9aUudbXDO2yjpyw9vG8AmN+Ldk6e/NrIc74t0sy7dEvRCSK8m7otfnH2nggPGb3hRt6hyo63PuqhFJbfdD66/0N920x3/P3OhHcsPeyUG08AIJUG9dHHGR6zKGHKzJq02Qc7UWb0ANzVerEJgKTHnM0DUdjJttQHcFaqhaMcSUzYWmJF2hbe8azodp3wtpXe8133RvKvoreU3tCc0SvcZnGuWbotak9NjOw11g0GoyI0FybK1B7zff5Fde+qt7XT9vWvH/5wb3f/Cy/Xs0WwqK/2xWDFPqFHIWUjQBecFVFTOGwwwD9YNiSh5VkBoIXDTuqhIxI+6KTW6ZSe7IIm3A8uUoVvXbvP4fv/1igbXmZKLC+odpX1DpS3tzf2DdscwWyaWWpqT1qWcy1FDKNMGfMr03tsZnuXkiA9wUjPZ5gZbenqL5/Y3nXiyXta96//Ojb3y7d+Y2AGr2wRObey8IgRYQXn2sD3YAVwhlhgpgFzUUhb1BbGA+WSW4EkmOYeoO1y+1ZPciIiWTY6s+HTmwKDcg3xSa995/Ddx8b/sXp0APHfatO+V6ocL9a5dtQ7Sv+1kErgfqCkZy1SbOYa9JsGmQaiIYwFEyxGXEe04XU1Pb3BsWEWmW352iD4/XTtqc/bHroH9af5dfft8V8/w5FrFGO9xsXxKJNW+vE8nSYayP3KApgoFIQTbcDGUQ0ThnQiqBG/lDJisQAyZlAg4mDGEawk8ZPgVwpdjniNB1Rki5EFIgIdrn3n8Og25JTEdBt9QnnurP9SHpHfmjOxuhmH9eSyzRRRXJFpZhTM/Ta1Fg0Y3t5g5Hr3hCgtrG869mPWpbtsYjlS1AxkZRaQrS9a1crGkkGKUGBDFKoM3JZShjiYo1LLXJEUCf3ISAtFD30RcRBMBQfIeikdzrJyTYUromoF1U5KnF8ylzbotLRRaWjdx8bXlrifbLMtbFc1POo6BD1PLzBCGIDZ+wvlyEHyj6ucWxBkfF3EXKsRHisrBKYM+bX5vQ5HYtGfcGI0x9BnFpBnf3Ns93Pl7StOmhdsqNW5RottqSvO8ZV2+F+4UmAcCM3AhNuAgEo+EHGIGEIrIH+4u/EI0CHLFP9eN6DtjR4sthKPV6DWoxruGTkyWtRIPd/7IVNuu5sP/yktdd8V91iui3X0kWzhmtCglXfhC+VgUyksnIH64rqmyTWjPi1OYXa+Ph4eDTq9Eea7cMIvl1/sovMz59uq1PF2ltVomoFXgnRJiopWkzb7SaONuRRMq4JXXNEUzdADwGIGtA+/J1vojY1MBIfqTP1R74LbMkpvd/1vpNe6qWh+i5bC2bxUQ9s0jVlLjgTULPIqJeb1/bDHy+JXz5+82hk4jtUW4ozpwHG/Nrc0c2neD8/v+Iqqu//6xnbU0cu/yy/ftH/mIVSw0pxKDQGazQF2jbXmHZbk6JNwZkqbTh0Era5UCJlR3pN2kX6yMcna2uHIirNVEM1SI+o021Yn/Su40HTx64lpyIk3Iz1DT7r+Q5ce+zLGNfo9y9I9+WtBfsiEEORQb7Fd97CJsg3bHrsS6Ne7uxjjUfelre7D9T0/fWMbW1x6/K3GxWo1YiSsOKlVE8UxqbWSIa2Ny6Ytprv2t8i0IZcK9kgFbPsaaGN6ymOrWScmkK/tstMEQ3HUbkGWaqpNppr42grah35yjHe5Ru/7g0FIyK8Bn7SLM67SmyHfqlOrgNqMRAsVK6RLqMTRo/0kTAXo57BtdnGGtYP7XYFqm3e0pbBfVW9fy7tfPajluVvN/58l2XRljphckrrmadGGxXC3mpWo3b3DwiE4bcNfYTgD9ihnFYJ2+l3aoQSM3eTac8s0RJwjWWSmoqFq3RpiddU6Fx1yvdkmevVKl++xVvUOoI1XHKh7EdCrgEKpG6IGoILCxJtqvhSHJ0kMEm4cbpJF2XotdnGmji+3ReutnlLGh1I/Fx9UKxueW+eedGWOsE1KDWONtihUG0p5tpQ73+nVdikXLVRrlWhEhsxIYASDkjYOUmcEf5mg2v8mGImES8NcPf+c3jxUQ8C3JaXeV+ocMOZgGq6vmAkktV58sm4RnQgKKiNhce1OOzGow3nLAGOVJvQoYZemz2wRZVsdm8w0tg3/GmTc1OFbd1nHasPWtWQjq2KUhNiTafXyCAF4MiTwN0ItDgTonYlg5TcCOmgLSGtEnZOAXYwh5V3TqKZbcfZpNqCCWSTLj7qQQjIurP975nt5c39bQP+/qFQFqclTMg1SeAsQMnGORUzMBGkpng/ufyUBhhcmy2s+UOjrhGRI1Vt837a5Nz8he3FkvbfHW5E4qewPbfWiRfJMa7XwDXotRRzbYQ2ZpCqoW1Uh1LLRkhrro2zbAoI47tr7ZnlV7KjCa4VOlS6xXsSELuLpKs1ZS6otqJWUQ+q2T7sGon4Q6PZt2xVMq4RLAAFUm0Lk2vxZ6vE32pE42fOh2ny0/AbzA7Z/KFRmytwScmRyjt/9aVjHSveaVi2x6JmswNq9K6fYiPJxummdyMQ2nho2xElZpVyEvhcmxbSAUDEfAtKv2CfwiMJH+BF3C5MfyXbKh1chU6BqCg34y9xcGRZKcdXKjtpZSkLHchMANpWnfIhLWGXdaS83V3fo2bLZ5kPISHXHov3G0iSbaFNsRGtgCoKuCVpllCvYS9Dr80O1cbHvcEIiqltLO9aW9y64p0GkfWZV6vKNCIaV22SZCO0oYH39NFWHF+KEtNP8VxTUaWJnYS4IR6ZEiEp9VZVJPKyHBpAE37XlDslronv5TNuSvguhJtYEOfoIITbobq+c53uht4huy88W8/BPB03GdcIFgoU1NB8TeMsrGgPYIvBS5wtTnX5uVvLzyG8QzR4vwprY35tZh88lOi46hYlOpDN/lyJgNqyPcJRkBhqHG3JhBugxj0JCefauGqjqF2ySUVJDC1SV4OUCibNiJPIEtuqDJC2xmErEbDidie6aV+tP9qUexJwTSO4uGRIV1p6ucj5wHHhJ6W0hPoeX5YtzZeCa5reiYV9gR0LTa899iXBS4Td8ZcCLxBNvQq6KCDP0GszibVoVNQdarYPf37FVVBnf/207ZmPWlYpjoLE5qek2mi6TS/c0EN+0tSqjRISjjgEemhN9UQGaYwIGtpUGBEXGI/kTRiTegBtpQYdeWYbOD4/Jl0R0KZFIFONI6QlbDIPIVW+vsfX4wmGs2I5q2Rc43oHSofEzsLkmspcxV2gmKIqzuL1mtxpcG0muTY+Pt7jCZa3u3dV9qz7rINypIRSI0eBnmVST0LJRqRLx0OqRO2quVYH7YJrfK6N4nUlKhF3sqmB6bbDSkoZ/AkK5akQCPlJ885fLW0ZbBvwZ4cPIRnXuK7BjJVGugUdwqaJtVtAG9drBDjeaXBtxrgWjERdI5Fqm/dATd+fSzufOnJ5+duNS3bUioyCrXWmHVYRfCshLOFHaDECmdSgkF0M21yjlmlD5Q9e/2NbPSUkCG8At0aV4A/ViqQZ92zCGV0L2H3YLhZzQGYCAty0QiB3Hxv+5Uk/t0nbBvw+JU8+o9MSknNNlTaa9mGZVQsvhE0xRWNnCBuT3jGVpiDP0GszxrHYgYIRNZsdOVKvlXX/obAJ6QTqnBqxKSHI9J3ELNqRGqTXKKgtGdpAwN1WUUb8cL/iLoynGwk3okC2Ng73iztAaINhzuruPvLBAA8BOdfp7nYFnH6xcB/+zBnnLU3BNa5ryAgVjQXJNUIbTpu/08nHdwrGGXothqcpt8Kj0Wb7cPG3Ip3g5U86lELeliU7akVGgRBr8TKNCKXHmdSTzCDVSzY92uBVQEICVkiQau1Kc23ZSjTpumCWkkGq2aS8pPi6s/15569+2uSETZqhaQkpuKbNrAvvp2bfLVyogbak0eIb5EyI6TWNzkb82pR5pu3oDUbK293bL/Y+X9JGOVJqSAfMT86yPLNqk/JOiWj4mMwgTSjZ9Gij0Lat2uIvvNYuuEbZCNltjRLduFeB8q6UKJC7j4m8q0c+GFh90Aq0nesUlSntvnB4NJpxdEvGNe1nv7BCOmbhrAyuaXia7P9RTK1twM/XkYqLvCVyEcu21sWluE846TahZAPjyG6Vgj8IbXk1pp2KQQrVJk23ITcgR9AGxhHg4CpVptvgJ33kgwGabitqFeuTNtuHr3tDrhFRnDJTFkzIca4Z9XInS7PYeHgJCursyJFC4mfieA4CHNdlCTv5AIR90DDeIMkmZVmlUG3xoW1q/AecCTyurdChTcZpq9uR2MmyxuF+NWwFaDvcL1wrhQ6ySbEWTL7Fi/VJscxVptTdzXGuGfNrMU5NquVTVl0pqLO/Vta95v3LqXKkJFTxj4Qq3snbyfQaD9MltJEnIZlqi0eb6iRVM+S1yh8FShle1c+QA2iDM4G5ShECsviohxbx22UdKWl0oKQ4eRIm9bTM/eAc55qh1yb3yKEqod0X7nYFytvdeeevPvtRy0P7xeoEkwtSA7y4fcpxRu1kU2wAIlQbTyBFz3ZlOSuJbviooE3Ef+wfiJURR+gDV225wDXVSdovkkkRCKLZpCZtwYTFRz1Yn3RXZc8Ja19ltwd+Un9IFDma3KMzt6NznGuGXkvrccNDjHSCzkFRnvBQXd/G8q7nS9p+vb8BS66ocWqEpHQaE+q1NDMQIN8kP2meWYS26ePa3qoyUULCQbv4VfPpNiRaid85YiO09+wzQg8rRDviEHfgYJ8aBVKopWcUi/Lidx8bJtWGtITSlsFqm9fmCrhGxEpXaT098zEox7lm6LVJPHSB8JjTH7nQ5dlV2fPSsQ5E3qoVIhF8mw7LpjAmtWoD1LiCm9CNgISE/AZRkPJdexzXCpXUK2GNKsjDz15iXHZ8xKXxdwpwg4BVJh+Xlnh5+bY3z3YX1NkvdXtsroDBtVnwY86Uo9bwh05ENr42e0PvUEGd/c+lnfASLPof891SeNoUsJXOLikm2jjRSLilmGsjJ+kOq5xrxYM/YJpxUcMRkJVtwWtdZkKRE4uTUqr85i9sRfX9tdd8/UMhPDsLcLUEQ68Z61ElBhv+NR6Litglp1+szV7e7sY6Un8obPr5LmUZ43SQNCNjJuQambRkjQJtW+sSJFoBbZB1WLJPMUhjTlKaa1MnnhRjLStZpr8o0I0ieI8OYrqNKlOuPePZZB4qah251O3pGLrR4wkuwOm2HOeaMb+WGGr07zBBrbRl8M2z3a8cb1/z/mW55u2MkCv1QdLh2ltVanCchLYUwR9vXBBVyCkhgZc2UtAmSAeD9GCfmIfKkVci4UZVQLBaAq0FY3FE7L5wRMu4SvU8zeG2HOeaMb+W9FmjxfGuugMVHSKd4OkPm369v+HePPNP/vb1PX9XqninhtEMbk2Haykm2hKijQzSPKUo+b4m4SRlU0uiDTcCZtZzCm0g+GFR3VcpUamEvBQ5kZawtMRLSy8XtY4024d9wUggPDY+Pr5AJt0Mrhl2aBza8FwCanZfuLFvuLRl8EBN34sl7asOWieoDTmDIJMORa4AapDhqW9AuEmpCKnR9laV8CHsvRxb1wohu6jgdtguPIa5xjVcsuJCEXSDq1RZxI9id8kmrbZ5u12BhZOWYHDN4Foc1/BPrj80aveFqebty5+I1Ql+ll8/iTJqEphm9uOE8o2bouRDmBBt+Q1ioeUDfcJDSsLtiGaK5ogRyi8TKJf8pEVifVKgjVaV57G7C2GZq2RcW35WSXfPund4ZtnVGf5QGWvjgfAYlFpRff/rp22/L2hctofX55hbC1QPxAklG9drvHQ4dpTidXnJtq1modoUtMV8CEeUdZ4ooo3/7HOkLXkSFOJj6WWelrChWlR+r+/xXXUHsPSy7smau47UXBOVPBS08cZvSr+nuI2Ma0uX80i5wTX2sIVHRSHvq+5As30Y6QRPf9j0023zDTJCGy+6C0jpjVD0JNNrqdH2VtVP/vb1kgPNSw/alx60Lz7quf9jr1g4HWhDUFtORX5I4ObTbVqNI9MRB27UCxXuDdW+ow0OHrg7X9NtybiWEGScYoS2jGvgKkiyGXaoABuC1PqHQkgnONrgyDt/9eVPOuZzTo1wJjXAJkpF0NukqfUaRxu0G3u/b4v5Z/n1DxeKKnJrylyrTvkeOO4TaCMfAo/XlX722f0R021K4Etsuu3ooEjMODq4+KgHNukm89Au68gJa5/FIVaP9Sqld+c+qzQZ1+hnnxBbHHCZ2MZFLT8r6soZXBNcQ9GhzkGxXO6Bmr51n4l0gof+YUU6QVr1uyX6pPgIsvD3FINpE8Qal2zYpOcaF3FU+YPPstFXv3FBXZhZQdv9O+of3PvNqoPWZz5qWfdZx7qz/S9UuJeXiYB7LE8nfs85yzWitha7K+6GVqLy3n+K8m2Sn7Siw905OOINRphJMEfNZFzjeg0U4PzS9/CtC7lNmFbA/ePys7cMrqlQ63YFLnR5iur7XyvrXnXQev8OxUug5wiBZsoNiURT+ApiHAjFQaZvSzYpJ12eWeSKbqs3ba2752/mX+9vWP5249MfNv31jO1ATV9BnX2TeWjtGZH7veRU5P6PFYMUvlH6kedsg+QbQ9vdx4aXnIogVX6TeQjrk/Z4gjy6bW4s02Rc43rtN6Xfr6i5qWcZMSJTGgRcrfHj6rN3cpdrYVGUIeoPjbpG1HSCAzV9fz0jFsd7cO+spRPoSYSeFJQkisH2JJlGDT3LeA9xDT4ENcytxrS5ZtH/mO/5ex1sT8i0lz/p2PyF7VBdX0WHu6LDfcLat6Hat6bMtabMtbTEe+8/h3/6LssbzXGoHezDWtHqEqWs7i5idyktoW3Af90bmsu0hHS4tqL6pgaCBFmZfNNCaz/25S1+Sjr+/pjT+QaA2nVvqKF3qLRlcF9V719Odv6hsOnRt78VIR15taqNRlbbTDU4dNBO58gENQlzkvrTH5wnjYqtNWLJBci0bfU/32VZtsfy+4LGtcWtG8u7Curs5e1uFIntdgUsjshXjvF8i3eTeeiFCvcjHwyIKJACJZwtZ6FGUcpaFIhqkGorfi0t8T5w3LfqlG/1CSctvXyp23PVHUDs7hzYoulwTei1aqHXiBHU0JEiAfjmZYx0hvwjb+e0PzQ8Gu3xBAlqrxxvX62Yn3dvNS/aUid+/+JlXhAv0nRTgxqlImB3UafIatppXbxXhLD87nDjS8eETPu0ydlsH3b6IwhT8AYjrpFIx9CNVvdYUevIJvPQ6hPOX5703/2eUrBMeBKMl3IHDvZhpXo1M+GIKHB0/8feX570Iy3h9dO2fVW91Ta0xSF3AAAgAElEQVTvVXdgDqAGP9hwIOwI3Wjy3vis57u8th/+eOnmY1+K9VlgiqamEmfEQmunPnMytHPXDkXNWyi19f/7f6sPWu/Z+rXQaCrRFgzUuKbjqi0dpYZ91dRRJV8Kc2p7Lpv2NT2417LqoPX5krbNX9gK6uyNfcO8zjXNBPnCUYsjUtQ68mqV78ky1yMfDCw9aBcGKQRLruUhSDTHRJvyrtINIc3FzruOB3/6rv1Xhf2rlLVgilpHaq/5ULstEB6j1RLoPs8g8tLUa8QIDq+EnXzAHLdpEhAnRt+ub2CA8Ifmmt8Az1A0Gg2Ex7A2+76qXspmF1xbOBpNLxUlc1U/IFWPmFDDCs33bTGDaGuLW18r695X1VvSKKKuul0ioFT/64qMRh2hG0AbeRJ+edIv0Jbj7lHVe6BU3+RmKZKujg4uLfEuPWiX1oKxOMR8bv9QKDI6WwvBJOOaXq8RHRLijDrnq8EnAfWnys8KW3NXr1HuZ+01X0Gd/eVPOuKWXFnIXEuFrST2MqFQ80vcvVVEqP2+oPHlTzowoXahy4Mll5JNbEejURg1FkfkhLUv3+KFk/Sn79rvRSw+0yxqJmnu9Ig7oHENaFMWu1Im3YSVisqUj3wwQH7SolZRcrlzcAQm/3zpNQ4FPsuWop+TZS7bKU5J2gRw52L8mi8YwbTa51dcG8u7njzSpMi02gVqfk6BZbQLzcppUIMP9Nf7G9YWt+adv4q8HykQQa/XMF8DcdHtCjR5b2yo9iG07afv2tXpNlFKW/uF52xDorkQs6KwOK0Fs7TE+2SZ69UqH8q3tQ34vVohkIS3fcqd6eg1DiY9HVKQLuHg2e5MeLbUSY0c1WtYo6DZPoxFP9d9JjIKRM1bdU4tieohUmRWA4anMqF2b57557ssNKG2qUJ4CbDGkmskge2Z7BcVHo12+YSHdEO1b+0Zzxpluk2N/8hZnCW8cIVxQrVRBYGjg3cdD1Ld3UN1fZ9fcdVe8/V4gjMu3JJxjX72hCEiAgcZ7xT9ZSx1dC7bLGUVJyydGF0FNZRkg5zMN7juDZ3rdO+q7Plzaeea9y8v26OEqmWZ+ZlnVoNUttaZttXfm2dedujKincaXv6k482z3QdqRHhaQ+9Qt7L+CPcVJMMZ9Qcjonpwl28c8R/wJPzypN+0v1edboNmSfhTz7VOHuCmuY+XlsT8pJvMoqz851dczfZhZMvTfZ5mIyHXlp8TgfjEL86IZG1AbUWNGumGUF4M/k3Z9ytrbgN5s9KvQU39Ou2jdP58629Kv19+TkAt5/wG4+PjnYNiOcg/l3Y+deTyo29/u2RHrSgSmT1c0/y5ili7e6uogrnkQPOKdxpeLGnfVdlT3u6uvea77g05/RF/aHSyvx/U8g+GIk5/pNU9lm/xvlolAncF2t5VTFGxsrJuOatcIxquF4hX1vHTAkFiM26/KuxHgNt7ZhEz2Dbgn8KfI9mfLynXzsVFonEoEC+4MsIAUkNSg+s4vmla/RdvP/blrRWV6nnyE+CHxQD9+2MXbz9Snnv5BtFotG3Av6+qV6z7+Q+x7udPt9Vp0WrZYYTW3PN3cUWLtqiJBA8XdjxRLJYEfPNsd2nL4AzO6Tj9atQuj/9QPQm5CTL9VfMZN6UciOpPKB407e+Fn/S1su5dlT0VHQJtvqD6j800U+WTcY3gxXmhgiyJgSntIqEw4Vb1gIrCSn/8hIcSA5ST5MeU2oog/TEX/QaNfcN556/+vqBx6c5vTHm1i7bUZY9eUxwFi7bU3ZtnXrKj9tf7G353uPG5ktbXT4t8z0+bnPU9PteICLudvg8OM5UdQzdgkCJJ/leF/UsPwkma8z4EiXHkKiW6KfUppRCQym7PjKTKJ+PacqbXOCPiSKQBDsjgQgzthz5Xp9toANdNXFWph01yQBrJ2cS/jgaox2GmKB+mthWhp/pDcy1+bXx8vNk+vKnCtvqgVfMVaIZbZvkE5LNVrkKxPRdtqVuyo/bBvd+sef/yK8fbt1/she0pBRZMH23BiFqujickIGpXUW0G2nR3gMW43fW+86fv2nlawibz0CbzUHlzf+fgyCzpNcSs4l3gQGOBIIvWVmWR9pFDh0DGiZN4ABNr4A6m9tCm45BGU9mkJXXRAH5wvi/vpzau65HynJxfq73m2/yFbfnbjWoGqAyIDLVGaxRrutaUV7tkR+2yPZY/FDa9/EnH9ou9sD0D4TGAbDYWuxwOhBG1y1Wb6kaQZEsuf3y3T52CVJaXp+QErAXzq8L+J8tc687251u8XznG7b6wPzSKP9YU/mQp9Jrgy8XbQACIAOIsPxtLFIXqwVaVOMouYB8RKm7Al7GZuzjq6S3HRPIt7lAKUvlByALFyUAePvqF+EbexnU9ejH35tfGx8drr/nyzl999O1vs49rP8uvX7bHsuKdhmc/all/smtXZU9py2B9j28GJ6QTTlT7Q6NtA/6vHONII0XULjwJhnCLhfVxrmnOBESBIJ+U26Tlzf1N3httA34eApK+xJ6Aa8pEFYgAVAmIKDQBs9SPYFm8hgKAVOgkHKBhS4IRKbKEepAGxx1fYSUhD1+qDmB6kO+inH+u6rVNFbaH/mFlqaAZqtHotIURet8WUUANtifWJEcigdMfmaZRk5BlUidqPfFcK4S2LT2o5FrlskzTX7vmJ5WcpJJNuq+qt7y5H2hLlgoi/RXo4wRc0xDGiUBkiZEORFMG8xm0hAOgnuI2aYDTk0jSgwJGyrekOAiNgSjD+BgrL95+7KIadAIpmnN57/AbPHXksli4IC+j0wxoZrDGlCccu2vev/yXk537qno/v+Jq7BvuHwpNKjaNfhVTaESjItXRF4wAbRS1K1TbgT4j8iOm2oA58pPSOn5KOj2WuSKbdJd1BGiz+8KT+lMm4xrBixQZ0AD0xG2VZt8k1QZmKTASe3H1BOmnbKLDkqtB/TpJHvLd0aaDJJSE+vGl30NpwjHym7Lvc4triPM4UNP37Ecty/ZY7s0TJYkyM85D5LHf83fV9blsj+WpI5f/XNoJ27Ohd+i6N4R5mSlAajq7cLShIKVhkMpQIwWnCTeTuiKMUvXosFjq8Kfv2tco021AW+01H9w+EG4TCvBkXMPPnn78hKQYbrRpMm70PfblLSipFLtD0KkD4qfqVKOV8Ec6jsERO/LJMprvUxGsnRhG4oSBS/pqEZQrFjfIvXoeiMstqLOvP9m15v3Lv97fcN8WUTM2o+JySabV/uRvXz/0DysKqFFVyPoeEXZLs87TgdRk9x1T6g+jIGV5c/8u68j6miEqbWTMtSUAHBNuMEtFgFuR07S/l8q3oe5uebNYxM/uC7tGJg7TSco1pYaPEpQfm+aH0iH6kGojWy9OjpGeSiboNC0GaBKG4o6vHIS+KPHxFdOSy8m4YQRHTbvhomCu5pxeGx8ft7kCWENv3WcdvzvcqJb8zox8A5VocH3es/XrZXssqw9a/3Kys6DOXtoySP+qz0iE2mShhvFUWr3LN37C2rfLOrLurPD0iVq7IiHBSEXQBX9IlinWhSmMFQJBqvwu60hpy2C1zQtXaeq/TlKuiTQj8QJlOCnEnJfWLxFHwAUmJ3vnR8C+NAybaEaMiCaOrxGNvgLkUoUewutgwyrk4uPVb7l4WwzWZtOwu5h00y5NNHIwfs3pj1TbvAV19rzzV58raX3oH9Z7RagHiSCajF9oDWVFAsVqvmfr1wjmWHXQ+vInHe+Z7ZXdnhlMJEj9m0lzK5ykHG1ard0kP2yyznKzwbylMX9C8aBwmH4s1pegkuLN9olnTifkGkCgvsPtSAqoTGRZxlAVbz+qKFREmaTFYpuYH5OgRg2u43AEbFJ31+lBdYymyxLsru1Cki1HuXbVHbjU7Tna4Hj9tI1S34UIUovlLjSiKdhVZtNANCmR4PMrrm5XwOmPzF6dwjRZxoeFR6PXvSEq2bburEiHjNXaPdyvBnPlJsX0Vw2uvdsnCtj9/+2d/29TV573I83TLdpZoarP7hatJhCGH6pI1Xa0VJVG6qgSmo5UPdLo6eysKu0Poy2VdmEEy7ZPCn2gtJCBYem0XXiWKS1LxgQyHb62KWFosoFMSEii4BDbgBPbSfwtcSIVFMKXP+DRue/rtz8+13bsxEns+FTIc+65555787Hva97nnM/nc/Z7rHCr28i0zlD51xq9alf5jrELfQF6WWecRc3MNTEItaVZUvXY0ElKIaohVW+pJ8DFnv5P1tg8SgJRstJGntWSV6G9OiWWL3lrklTeK9st0p4QU29JyVZ9XHG5stYNJicnI/GEf0ztWXuhL7C32fOTQ9f+ZtdlFf2+7Ss10VaiaFNut09s++qpuks177f93YF2rnty7BlbsOSrklb5lzHX5h6OIPkHXNteOTn0bENQOX+YfG0Z0YbKJNog3BCW8NdHgtjmSgk3yzPx8kAoW46pbFxTmLBYljZqs9TZ9yyZJj/ZhlfxWjRjAwwqJStRljU2iZJ3Zw9an6l7ffEQhMJdnM1Sdxd9qvWN04+qj1fYeqh8LW8Gop9dvfPGCSXZqne1PlV3yZFgcsm3OODo2PbkqH5PbVr895917232nOkd7vWrLY5Go+MLmixfGm0O5WAk3n1nTHrtrjrgrVI5xM2ANLsFINwE4Fbs8fzZR8P03X3T1fPJN75sWUCycW3tKbWyCSIoGQW9ZoFATlEBDTwL1pAjzsvRQHaoNc52mLVna7JPPoDWQ45Ta08pIFacXuObGYzELw+EsBHyhkMd6z64/JfvtmB5tGSC4ZVMW/GWcubAxlEbDnX8w+fdb59WHmqF+jTxD1/8wkg4hgh5qjZEyKtcu8huZBgnLcC5NtLt4G01Mt3vefI/R9Z8eOu5fW2YbnNd8bb4VP5nGZaQbT8q+ECkBFESatlqIJeggKjjABSMJQEyqaoUfSwn24x9ZpNvhBS6sg+Teg2H685aax3JZ05rmaxUD2n5eVQ01zABdKEvcKjNt/2s+yeHrj23T+079+f/WjpObV+ueOvi09tbat5v+9HHVxHvefCSF9nxA8VIy7EIjIuPJ2LjCW8o2n1n7Gzv8MGOMem1a4WRZpct8m2vnDK5Zs9CJrf+2q+2AcNGMNjBb1NzaHvr2NHWQXgsMiwhm17Da0/JpomgjIJLk1Ros/aUTRn2IK+VZQk4NJZnnTX27eCGhvVZa+JMXqX1iT+HfxQ0aeXqtYlEIj6u9nvv84dPdg29fVolZVv7/jdAW3oowqINSJMDz+Q035Nbm6vfa8XGUXubPcjSBaVWkAP6IvArxy0mEolIXNGtz9pr+WDH2MGOMYSRWtEIhmtZLAAxu2sgOWb3VB3wcbpt1QEv6LbxQvBo62Db4IgnGMPWywnrt+2Ppe0fqhLJ0slDaBxKMBtSjSqYXLKDZcg0bWqMagvNqPLs3uB+kRRxslK/r9VS9ialorxQlvlsuBBQq2i9Jt/Dzlujh9p8b5zoe/mTjtr61qe3p0IRFtdrN5UV8oltX/2PLV89vb3lh79pf/3znt1fDrquDfVl2QpP/i2lXI5E1YoNY61eOTmk5tp2W4ku6pPpLipHl836l6oQNGvhuH7QttI+r71aesD33f8IfOfwyKoD3pdPDANt2LACySlHwjF/bKonONnkTe2LDLRxlg0aB1KIEoykWHfWnomraUzNyuGsHFGmmgkPMnYiOSXLsgdZzzLghX4yPtv3jk2rWyefTeo1wzUbAu7hCAakb5+2txNFinDLtQ0xpAvt/JFUalvVnBqyQtbWt756WO2G96uLg4sZxL5wZORiNNGGzV+Su5FmkS2zvv/LsgEn1wC13ZYLiHQEOeCrOnh7Zb3aevnlE8PYLeFMr9o10T8WD0TiI+FYx9BEw+Ddvd13NzTfh3fF979Q6S7IHU2CaWM6NgNuKKDyaSZHjnIOjgACuQgyCj15F5xFS+AYNVkVpZlf49tLj4TOW6Oua0N7mz3Y/aDm/bant7dY4fGAzsKhTfWfDFP9+smtat/ilz6+ik2LsWsRdtINRuIZ/ZX4t5R4AQPScGzCG1KubYi1eq1RjafURBskGz25TAFEq1cRo6l/CuJWlpRdA2oTv30qRzHXSbGFReetUYxJ/bGpphthcm3dF4/VuqflyEa+AF5OAaWpIQJIKqlsoklBzVrTROOaJqX4NEqmOkzOpmnPAC2WeXHWugR/AvUm8Vfb+Lhy59ecCIiPJzzB2JneYexW9ZK1B8ITW5rtuTZ7zqu4c22UaVZGcmvsiSD2N0707b+onDlKLZDAabdCaxBrdTMQRda2upbAa43e1IDU1imeKuXmVsn/rEEoZBq4ticdcFalirrd48F+YCvrPa9/GcI8LKbb3MORFl8cXFv35YO1X6h8PvbGVNYUmxRHNoOSc2HkDnnExqpl9mk4NpM9EDrkFEUc+2cbrXNgEZ9a59SbuFcS1jOGa2lvZSASv+IZcV1TG/G9/nnPD3/Tju1d4LWblFTFEm62THvi35TPLfb3fG5f2w9/0/6Px3r3X/RwV/CSCiRIs9dcD2QYKVQbs1Eq5w87GrySoWapV0Lt1z5rfs2jEJb2b9A+3DVQtWvgyX3e53/dzu0sLvQFLvQFGgbvbu28v/7MA41rWBsFLMgaIub7px9lVENoQPGlTW9J6GinNC2Glk6pJR/AFoNZ1jp4LR8JWKw+Pr32VOXFG+R+E2Pjan/MK56RP/QM77/o+cXv+n708dVn61uf+b+2/0dRM39YUQT/Zm8cVb2rFUTbeX7gUJvv6xtB5BQstUCC3AbM/2zCytfmH1PW5uYviJBPoq3CuWb9+USbWl0RULNApmpEAQPSHxzue/Vw1y9+17f9rHt769jW3/f//Kt7L55/sO5Cml4D1yRHcsxwUQ2hkEOvqU4yKT5QMgU+bC6VvixLVNkCLdlPSsdZ41nJYk2vEW1Gr6W9iRMJ5Y4QG0/0D4XP9tpo+/Ghzmfr1aZ8ydThHDzOR7ipOPaqrV9/Z1vzynf++Gy9gtovftf3yTe+C30B7FjsH1OpbueQ3j7tTyrJA262EE+6tl3oC8Br93nOtTGHT8WORuW0moTazoEU0QTXqnYPrqxXe8GsPtD1g8N9r5wcevnE8Csnh1698rC2Uc2sYX5tjWsGc/BkDXCAT0k6iqzk+C7ltiabcYEVYOJVklOsxIXSk04KQ9ktHUooD7WzmCvU/opKjzeY9X13D0eauoeg2l76+Orf7Lq84i01YMTufHMXbv9ynomGrI2jVK4heKj96uLgJXfQG4rO+mzLqQH/jwT7WiGvkbWMYG3ZV8ljUk2jSbRBqQF8QNuuATVWreuv2txVtbnryX3eNR/eWnXA+2xDUO3B3PhY5V+0As5rmhTXnIyQHNEEGmUa6yma2A+lE0GDxrxWU2HOsym8YiUhp17LpgoN12aBQ8AKbGzqHvrosu9NV8/Ln3Q8t6+t+r1WOxWlUltz1GtPWGPPv3y3BTLt7z9ToVFYJejzhxd6m5VZ/uxFP43sr5G40siN7tjBDpWyDa5t9m6kCm0VOSbNk2uUdXsGq3a4q3YOVG25XlXXv7JeBSfUHAv8z99F1fxakmvQazZlxMgONRBZoFVNk4q15FwbD1mYw1kuFxB/HDySdNXHlW8ansGp5ngWFzr7MfNrWV/i2LhykQ9ElB/p1zeCv22//ctTfT89cg15jSzVZnHtX84ruuX+TMOflb/bSgn5/K/bNxzq+OdGtUSAdU/kuc1/26GsT19uJ6S14dqGgAQ7Qr5iB6Q5uAaNRqKplpZY2+FWem3nACSb8gI5FHjmSFypmy9mrKRDM9hhE5IN6kZ+Yg0BQ0vMwWst0Vg2+94xNVXPxoCdPMRZSUO257XrztoJPAA+fsrb4aboRz4h7iXvaObXZmFAIqGcP654Rg61+eC1W1vfir3iZydaOu8w/KzaqnIirfvg8sufdLzp6vnosu9s77B7OBIfT/BRKhBt+NtHwjHk/3BdUbnGqNrsCPlKE245uCbHoRh+1vWrQSjE2pbrSrjV9avh/H7PM0fiq12PkvlslV8u59dIB2BFgwt5pAoNSkMBN6jHIXqg1mNBniXpMvaQo6U6lbyvBFzGfnhro9dIklyFcGyi18rXRrRhhXTlO39c8Ra2fbEGpKBYFvmGBGpw5qitb/3JoWvYDY+pbnM9QcWcQ9CufyzDvlbJRdJKGpPm4Jqm1yDWJNd2DijM7VFZKrNxTZM5TnAQfwQTOUjRhAUBjXTyLGUUK2VjVrLAgSdrqN2IM/bJAhujc6PXZmdGODbhH4t7grHLA6HPrt7Zftb9j8d6X/r4as37bU/VXVKDUPwD0dI1WkrTbf36qbpL6z64/ONDnW+cUGvwSFff5w8HIvEyCmKf3V5zbcFF0glLIzsDEpQPanHHpHIc55zCUz4WSzSvxwfT1gp4iFUCNlMI86TpNZtrUq/Z49CMek2yRuIM9RgASmFFwLGxswdCBwXMi8lKZ7day3Vn06Ql1SLuJQWa7NzEG+T7CiJBAlzbzlj+H2+c6Pvhb9oV17Z+nRVtNu9sZ451H1x+9XDX1t/3f3Q55cyBVYJZd07L90GXRTu6tvX6w3RtqzkWyLpIyte7IAzhKpACZXn5HPqcwyXyjizLByPIZEETa9Bl2jh0c5el11Jcs9cNrPhQKbI0MHHijABig+oGNY8GpmgUY2PJFzYGECUW2Z69yQ75DM6pPdleK/M5a5pMvEGBIMDsD7x2/+Hz7uf2qRjS7/6fS0/VqX8r3/njU3WXntzajDLqn97eUv1eK5TappN9v22/zbwLBd684ppHovGbgSjQht1IsUOCEG5J51XGGJEOuQtOdkh1xrMo5O6KZzFsLOgSXisLOYafoJsm1lT75KIB59ccek1yjQggGiRoeBaV/JRgIrOyaS70TEklUeVkHxpr/WuP5HwM2Q/PoiszDi0AFhMJtUJ6e1QltlYpEi95f3mq73/9v66XPr76dwfan9vXtu6Dy8/Wt1a/1/psvfr3t/vbXvj3//7Rx1d/euTamy6Va+izq3faBkd6rbFnbFwlgCvg9hXZNBCJd4WmGCHPlYQU2sig/NEmL6EOQiU/tXrJnYxl2SfKGZvNWin74TNoBY1r1GtYDN1yXfl55Me1bOwg78Av4Emjj7xWIobIk5xyNmAzrVvt1hJYvAQ9S1ZKbw+Tp6hgVCAgAf4flwdCrmvKu23n+YF/bux9/b+uv3q468eHOvHv1cNdPz1y7fXPe94+PfDJN76TXUPcRkjuSFDwE1TYBZGoSrnTPxSG1+6m5hD3tbLRpoEAh7N+aqTIfThrb9ozkLB5Xqg1y/0w2koor63rTzmvbbmuvD0w6ZZcN3DqNckaQooII180snANgdiS/fCqHLTSOiStWHD2zBq2QYG30/o0em2OnEB2o/6hcNvgyBlLu20/6950su9NVw/+/fJU39bf92PH4rbBEZmBvqxzDc3RXvO+LBK1F0mxZR92SEhD26zDt1l5US4N5PxaXb+dwghD0QLHoZgyI8vgTab5lIEpGlkktqRucjJOu5AAlYTKWEly4V68i2wsy2xv9Nrc3zamErs9Gu/1h5u6h1zXhj75xrf/oufgJe/+i55Dbb7ftt8+2TV0yR28GYgals3d1skrvaEoAhI2NYfkgDRFt3IB0/yf0zkULWTdgEwhdMgjUgx0k7BwkkXDCqUcr1JISl9t4K0lGeVj8Fp0rt1CO6v1hj6N/1ryjZnT/04k1H/BSBybknTeGr3iGbnkDl4eCF1yB694RtoGR/r84f4hFRpVsa62czJthosmEgk4Espcu1RtCm2Vo9ecQ9G5rhuQRCQL0eBEBmtkY7bXAEQqaY3ZniIxWw0u5OXsEO21eq03Mw7N8ArlUwVOId9GJG5vAYPQq0BETQnFrE1hRqPjyzUnRz5WKm4beNtEonFfVK0kULWt2ONRXrucaUJh/pqolHuQei3jukF+82tO+UPhxlPEGWuIMBZkG2elxiCCTLZEmZ+8BD0DWxq8oB/ZktcavVbc9870tkgWGI2OQ7Vtag5hh4Q1H96q2iPyfyx77Sa5Nj8/D1JGYssJC1nDcg6cyW4zqkJ5O5ZZkHiVwJJleXdeiPsavbZIr6K5TREtEIyoOU2gbXuryv+BhJSp/B8VxbX89Brj3hFvkBsQOJsGi+Q0GSudbcgyeUork4moz8YvdsXbqZpkrKjsRJbR2MQbFPFdM10tngWcacQl2lSslRyTlvJwcs7PVrhec8a9q5hKi1bVx6dJGRZIFnkWlVobHtoFR59pV+Fs7k8rlze7LeDy49M1TQ9Xux4ZvbZ4b6O5U9EtMJFI9AQnj7YOStWmIiUZRroshZv080AyD64bbO5STrmZ/NfANWzasvaUevkZT455K/p8yHqGZNoEtHiEIHN+Ku7krHeeBap4oYaw1FmLUxmfIcMlSVYaP4+iv2imw8W2AJJ/HG0dxL5WFTEg1cRafvNrGtfAFKbB0DBBZqXVAxxJMZX7WskmlGWfkqQa9fBgWlYP/V7pGOUl1Q1Kr1U3TBu9ttjvoblfES0wkdz8pSs0dc43mSHX7vLTa5pYm4deywiLNJAlEaZDKhPg9N7EtRm5lteNhF7TVZvo3+4qqdfMOLSIr5jpaiktEInG3cMRoI3+H2pACi2znOimiTXEG3Acmj3eQNNrHGxirt15yHpngQhzAsvZOMXEdJGlcypJJdXeUcYdnZ+pzpOYQxuj15bybTT3LqIFIlEVIa+hLc21bc6T9CVyIZSaxrX56DUrcS51E2nFGic1UJMPX1LXSkil00f2k2qfbOOske35tGyGAuoN14r4ZpmultICMWvLvq7QFGOt6NpmpxEvETzN5zEyQm1O82sUaASENppTmJBIEmUnX5zzZfa1TkhZ/Th7yCj0JKqclzhr1Kxco0pWbri2lK+iuXcRLYCI3UhUJf+QsVYvYEPSPf5ivCgAABdHSURBVFaSsnIfkDon1+an1yTdcoBMAxwIKKEjyxI3TlrJs2k0dBIwWaNdIp85Q7lh2syvFfG1Ml2VkAU0tK064LUHpMuAbppko1OulqfIkX9Nm18jxfKhBrCFS1R7aDdwJ4v+QrepCzNBKnVWiEGNobhp/p9Gr5XQe2gepYgWSFjpPztvjWqqLZVrt0xVW675NWtzgx1u23kNLmzp+dc0rq12PVIubElC5aabLbuy0ScTs9K0WLYLF6DecK2Ir5LpqoQsgN1I/WNq79cWX1zz2rUj5OczybVU1+4aUCu8ml7DOFQmKdrWW7WtVwFuh1u1T+aV1LgGBZQSXzkRA1jkZp88CyE2T+WVv0aTLdWjGv+1EnodzaMU1QJWEim196uGNrX5Cyba91jhVvYhKkvvkwwl1Mg1eHhAlMlBaH5cS9NrOaFGPElyzVquaXyo2uTXswTT/MuGa0V9k0xnpWeB0ei4E21pA9J6j9oKYF9JfuLZoNH2WUqNUEMAbMbJtSxcq2l6uO7sw5qmGQRRAR9Az4J8WrppQXq2cJmh50a1GGr0Wum9heaJim0BRMjfDEQ7b426rngRa/XKySGgzRJuHjVY22NxDZ+5GSc5WKwy7ih74zMAavjUoJZCW3JyDU65kmu7BjgOrWl6+P0vZsg1IgAgyP2p4pPAqQI/53zhnG9X3TBt9FqxXyPTX+lZAHvI3x5N89qtPXrbHpDWDyq9tisp2Qg4jSxED7bj2zmgtkxWAfaWjJpPGczSeuCoU2pJybXUINTaYS/b/JrONSVnoNcKAkdBjVMsg7AqEIVzvFfyLrjc+K+V3otonmgBLBAbT4yEY913xlxXvAgjtf3a6q1slDutKXlCRAo3kg5nd7jVoHW3RUMorPl8YnSJW8h+ULPfUpFgrtNzDbFT2Oa9Xmz2nkuvKa6tdj0qSKzNEzQpzCXRs6A1Rq8twNtjuixVC2CDROxEcc43uak59FqjlwNStT0CxRfpRskG9eSsZwOqtl2WjmP9Hk9q5o5teCPU7FRDRVszQrXxRqSbE2raILQQvQauLShclhCFRq+V6itonmthLAC0BSNqW+uvbwQPdoxtvBB8+cTwmg9v2c4fUG2aQOOQENqK0Nk5oGAEkYVKDmZ5iBGu1oaV7Bl35MqAvBF91nIPQqHaZp9fM3ptYX5bc+q1ak5XmYuMBTJbwD9mx1ph85fao7dtQkmiQUOhRo4ESZ/91vwaWZatJdpDwbEfHMqFTnartQTX9icXQyXdGEGFAWldv/ortlxXzmv0X8s0v2b0WuafxaLXGq4tusmX+w3DsQn4fxzsGGNeoxXY+UXSjVSCtsIpVEKvscyxJ6fqSDHUyENyLaN2Y0uMaqVk229N7aUGoclFg3nrNY4cWcg2UGUDFrK1RD2b5Shka5mt3tlV2jOYuPfl/v6avy+DBWJqN9cEXdsOdozB/yMZIZ8uxEgl4IY444CUGHIyDkhCPWfTADVeTsaxf9BTajSJNsg0oE0uHRSo14iGNCI4/DnybJYNQLk7X6CzJu49w4/eVFWIBeja1hOcPOebBNqw0bLuzkZyEUYUbpxK22VNtwFSJJQ8ZKUcfmodym7BMnqBaCNQDkKxYjBvvbZAiCkIi0V8BuPnUSFvsfkzM1gAGy3D/+Ocb3J769jLJ4aR/MPesg9YkbiRZck7OR9HRcbGoB7bs94pBiHurHkxhVep1Ig2OK8x7RqgVqBeKyJElgpe2e5r/HIz/NZNVUVZYCKRmJycDEaU164WIb+SXhekG3AjR5esAdcweER7lMEpWeYlxByHnGiM+AcSDQNYtMHwk/Nrs8ZRWfd65kh8tevR2lMPv//FvNZDM3IkY+WSQ3P9mQdbO+83eb8NxtT3W5r/mXWD0vxeyv6pEhbU4P+BgIQLfQGsJDx/zK+cb+Gi4dRNcpBIAOUuUJpl7C1jJYgmuyXXQDSuhO5wq+wdOddDscMTgw3AI3ixLtqnhGDRb8q/qLbx8fozDza2TzcM3jVcK/u31PwBc7YA0BaJJ26PxpG1TW60rLx2pa+ZtkxJJKEAGGmV1GjUYmimkYtXyXqUJdE4Ai1QryEnGv08qhum17hmFuefpuCKe2t2Xn18ev2ZB2tcMxua7+/tvtt0I2y4NueXwly4fCyQSCT6/GEZkICVhDS0SQFFErHAs6xhgXBkGxbYhgWtMbkmVwwws4bPAvVacckyKxypzqCqZm1fUANwrabxYW3j49rGxy+ef/Dzr+6923mv0R3zx6ZK9tdpxqEl+9UstwdLJBLYIaFjaAIDUqwk2MsIZA3oQwZpBam2tFMAGSrRLEcD3k5CDWXNwyNb/rX0+TVNrxXEjqI0Jt2K0hs7QbdrXDO1jY83NN/f0Hx/49WZhsG77YGpkXCsZH+jhmsl+9UswwdLJFSEvH8s7otOISDhlZNDKdXGaTJKLRZIqGw1aJC7GZkom2lck3uGqqFoXnmKtPm1RdZrZFDRC4AaIvkp1vZ23/3U/W17YCoSjZfsb9RwrWS/muX8YMGIPdeGMNKV9Z41H96qQkwClRToQxhp9VKdSU7Jq1jv7ISOHZJrWoYiOnmU9ji0UJzlo+zYRq4YbGi+v7XzfsOgmlzrGJowXFvOr6j52+ZmAfdwpMUXP9Tm2946lnUlgeqMUMuGM1mf+yqelURj2c5gngyiwiB0flwjI9a4ZmQZPHLWSE5pZ3Mf5nkhlwIyPg+figusyL/EmTVAzR+bisSNn8fcfvvmqmVqASySjkbHe62VBAQkPH/Mn0ojLjlF2cUC2ZRRnclK2Q/hCPlGlrGg6TVkXivcz0Mbh2oc0Wb35VkyBfwCd2R7rbF2qHEt24USjtl6QD1GoOiWbms9wUl/bCo2noB/Ymn+Qs04tDS/lwp6qpuBqOuKd3vr2AvH/ESbHQxAkGkFgImVxBzJxRq2YYGniDOtwGk1xFEVg2uSUyw7KcYaIkkyyCmvcpzNcUrDn/Y8fAagDSsG3zumtnl/t/Neibt38LUxXKMpTGFpLBCMxL++ETzaOjiLaiOPZAG0AubkJJoGPkJNtnHijDUgWpH0muRIPmUNSflcQhgRiPlfpbXk3dEVlgt+9ifli/up+9ue4GQpT6vxF2y4RlOYwtJYIDauXHa7QlPnfJNII07VZru2AWREEgo8lJjT3Hq1UzzEtaQYC6lxqLUMKvXa5q4c+ddKZD2USNJQlechLwfRcIhpNa6B+qKl67Mmf76Ga9IapryUFrg9GkeslVxG0KPTySYWZHQnKxmEsHtQ9cAoUdlAwxkOtTADDELnt26QJ1YWuRkpJgskGgrISqSiC7zKscMXVT5rpTytxp+v4RpNYQpLbwFs2YcV0jTXNvKIhGKBp3IgjG0kBMm13YNV77SokFVCjW5r5FpR9RpRssgs4+3wAICXZBmCCjD2XH9GhRZsvDoDbzVfVDmsjUbHl/5XkscTGK7lYSTTZLEs4AnGukJTf+gZlrl2V9Z7Vh2wwkiJJxbAsl/7FJVQximt3nmW6kzSzY40cDh5zFuvaSDLsQqJlgRQQWsF8iqUtfuyAR+Au2dVN0wzUmpD830QDcNPhEyNhGPIZbBYv4V53cdwbV7mMxcX0QITiUQkrv55Q1FEyDONeCrWyulPizVQCC4JKbTMVi9bknEygkouGuxwV81Pr5EjeeKGAJqPq4fzWnZLvVbT+HCNa0bRrUlFgK4/8wBLBHu778L/FsPPSDQOqJUL2gzXivhimq6KZgEn2lbs8aitraRSe6fF3jvZCSnW1ItdC7T2XCVg+u/89drmLkzbMf9a7vjQbLqJoMnBO+3a3If5dAjerT/zgBqttvHxatcjyLStnfff7byHsWfH0MRIOBa3crsX7atdlI4M1xbFzOYmBVogHJvAXBu37HtB89oluZwKDqdIQK2BdqgSEyXZV4z5NXBH40spHBKIKCCO/cXzDzY03//Zn9RUGomGVQIVURCNx8ZLN6ggx2/KcC2HccypJbNAJJ4IROJ9/nCLL54h1y4n0Ug3WdB0mTzFMsQalRqHq0SbdPLIY35t7amHytvD2ne9FCimPQNYhtk0JB0C0YAze9Tp/bbpRrg9MNUxNIGlz3BsAr+Achl+8vdquEZTmELJWWAioeh2eSAk0aZGo9J5jajSCk5dpjVwHkqoaUui2vyaYxyKZLnURBpWlvCQQV0YeK52PcJyJ0adIBryDhFnk5OT2FcMP4iyg9rk5KThWsm9zOaBpAXi44mbAbWMINGWFkbqxFM+NZpewyXkmszkkV8cFcXaEko2UlUWEAhV2/h4jWvmxfMP1p9RA8+0UeeNcE9wEm4cEmfyWyi7suFa2X1llfXAE9ZupDcD0UvuoOuKF7FWdG2zlxFmBRkplq0lGmjrBnRey2M9lFwDUxZfoOG+HGkSryDaz/6kFjqV90b79N7uu1gZ4KjTH1MOt+Woy7K9DIZr2Sxj6kvFAhOJRFzEWm1qDsH/Q6Vs44DUCazcLOPZbb2271sOseacX8s0DgVKCJRFRhtcScA1uG6AdLWNj1+98pACTXlvWMEDSMvBxQFkWJmcnFwedDNcK5W31zzHrBYYCceueEYYRlp79DayUaZUG2mlYQ5xo1wckGf3ee1gg7QdW5JpcinZtPm1HW5Fw/0e+nmUgl4DUhkzgIEnnWxBtK6QWhYIxlRO9lkNXr4NDNfK97uruCcPRuL9Q2GJNg5IVYS8pNWsZRIQBU6oYSiqLYYWotcWWabhdpRmXBOwcZY+6jznU6nTfNGpeGlnT5v/L9twbf42ND0skgU4IO2+M3a2V4+1yqDaNHgBdlqlnFMD3bSVUEJty/Wqbb3q35brakfRJdJrQJj8BNoYBbWxfXprp9oKD5NoWOuUo85I3E4JuTyGnBl/fIZrGc1iKkvaAtjXSou1Uu61hfp2gHHOmTWm/8Y4VA5CwbWlmF8jyziRJweezoCBphth93DEH5viJNrk5CSzcSxjqBk/j5J+e83D5bCAf0yNSYk2bNm3gju/SGmmCTT64qIeGxoQbargmFzDZu9LpNeIMwaZooYCDdvfMVK9YVCFdsK91h+bIshyGHP5nTJ6bfl9p8v/L0KEvH/MDkg42DGG1EYvHPOvyKbaSDc59abpNULNqdd2DaTllcyu14o4v0aiQZfxEHGdGs6avN9+6v6WRPNF0+bRlrc6c/7iDdecNjE1ZWAByJBwbMITjF0eCDV1DwFtKqMR0CYdOJwso2pzzq9lWzTIT68Vi2ugmOaPRqXGKCgZMMBJNP9YfCQcq4R5tGy/VMO1bJYx9WVggURCTYHfHo0zISUHpHbyj4xEI9RQkGir61c+cUut1yTUZNaNF88/INE2Xp2he21PcDIYUwHqlabLsv1GDdeyWcbUl4cFJhKJYCTuH1No02KtUmjTBqE85LSajTbHtgYyiCq7XlvtekT/taLoNTrZEmopnLVPb2yftolmedh2DE1g47vy+MIW5SkN1xbFzOYmC2MByJOEhbb+oTBTG2GHhAxzbSQaJRuIRsA59drmriqsG8DJI9N6aE1jMZN5UKwBamtcM4zoZOKNrtAUE2/4oqW+m+fCfPm5ejVcy2Udc65cLJCwYq1Go+Pdd8a4+cvKek8qGyWn20g0DkKdYk0bh862HloUriHxBmfQkOuRMo1Eaw8ovw24bhDr+JrMIJQ/V8M1msIUytsCiHAMROLdd8bO+SaxjJC2ZZ8GsrTAqeSeBs7JNQS9O9dDhV/ufLgGkKnP49PrzzyQ6R4R1Cnn0S70BZB4o7y/qoV/esO1hbexucNiWQBoC1pog2qTOySk4ts56pRKjaFUTrGm6bVtvWq7g2JwjUNO7DPAKCiGqX/q/rbJke7R6LJZf1CGa7OayDQoDwvgbefmL55grNcfdl3xbmoO2RHy9Z6qbb3f/Y+AtZ9ecomA82tw79CgtrlLhUxljDeYH9c46qxpfIhcjwhTRxTU7i8HP7rsa7oR7vOHMeqMj6tI9VgyrtOgLfeP0nAtt33M2bK0AKbbwrGJtsER7CFfe/T2qgNee7oNCJPRoBh+ZhyEMj5Urhukx4cWtB5KoiFggFk37PxoV2fePj1wNnC/xacCKuLlub3Akv9oDNeW/CswD1BkC1DLxMcTnmAMsVYbLwRfa/QiIEEl/0gNRZPCLaNek34ekmsFxhukJtEappnAFgEDG9unMerkykDTDRUf1usP+8fikXhZbptS5G+08O4M1wq3mbmiTCzAXLv02n2t0bvqgNfejZRBVPTtcOo1jEPp5/FPf5g1n4fTf01OotF1Qy50vn16QJtE88emRqPjDBgoE3uX0GMarpXQl2EepegWQLgVhJvrivf1L0MMSFgJisn5NWaRlIWdA2p+bdeAnaSI/mu7B6sO+GReydWuR0CYRBuhpo06GaauVgasHQYQMAALUHIW3SAV0qHhWoV80RX9Z2K6zRmQYKNNrhW806IWCjj8BNEYacD8a0moPXMkvsY1g032VrseaQHqAJxMvMFNBt7tvIcEto3uGAIGgpHlnMB2kX9/hmuLbHBzu6WxQGw84Q1Fu0JTf+hRCSkRkIB9rexoUBINAQb83HLdzuSx9Ut7EGo5eVQfn37mSBxx6eAaQqlQA5lGjcZk3HISjQED2DalMhMKLdCvwXBtgQxrui0tC5Aa3lC0Y2gCaHtuX5uNNjhz4HPngAqcyqjUMAit68cIFE5ncMpde+qhHH5i72Gudf78q3skGnAWjKnNaEbCMeXAkUxgW1omK+enMVwr52/PPHvhFkgklHA755vc1Bx6rdH7bH3rqgPeJ/d5V7x10R5+UqlJd1yots1dStztGnjmSBwjUKiz1a5Hq12PuNAJ91ru1KkFDCAEqvAHN1cUYAHDtQKMZZouAwtMJBL+MTvW6mDH2KZmtZLwwr//d9qYFPNrjHjfcl3Jtx1utXpgrRUQaiAa83FLgZZxp05fdMp4byzCr8hwbRGMbG5RchaIROOeYKxtcORo6+DGC0GFtmN+tWsfXNvoywac7XArmZYMMMAaqB0T2jTDxQEmsMW2KXKnToWzmCKaTPdYckZZRg9kuLaMvkzzpxRogUg0Lr12nz/mR0yCWifdp9zcqvZ5vrPXp0apezxP/ucIhp/rzzxQw8+mGSwLIPHG+jMq4yO8N+CPxp06C3wo07wIFjBcK4IRTRdlagEZkFDXEsCY9Plj/hcswK358NaaD2/91eejf30k+BcN8b/6fBQgw85PTF0r1zq3n3XDHw3ZhJAZrUyNU9aPbbhW1l+fefh5WWA0Oj4aHb8ZiPYEJ7GNfF1LYOOF4P8+H3z9y9ArJ4d+cLiv5lig9ujt2qO3X/rjoxfPP3j1ykOON+lbC5xpO3X6x1Jh6vN6SnNx4RYwXCvcZuaKZWQB+H9EovFgLNETnOwKTZ0N3G8YVJsK7+2+u/HqzMarMz//6p72D/V7u+++fXpg/0XPOd9kiy8ON7RINA7XDey9sIxMVU5/iuFaOX1b5lkXzgLx8QRm99sDU003wty27t3Oe2Tc3u672Ef97dMDn7q//dXFQRCtKzR1MxANxyYW7vFMzwVZwHCtIHOZxsvWAshJiW03O4Ym2gNqA4FGd6zpRhg7DWN9U33eCDe6VZqQC32BrpDaptMbimJIu2ytU25/mOFauX1j5nkXzALISYkMjoGIGlf6YwpbvuhUMGarORziVCASj0SN68aCfR/z6NhwbR7GM5cuUwuYdBrl/sUarpX7N2ie31jAWEC3gOGabhFzbCxgLFDuFjBcK/dv0Dy/sYCxgG4BwzXdIubYWMBYoNwtYLhW7t+geX5jAWMB3QKGa7pFzLGxgLFAuVvAcK3cv0Hz/MYCxgK6BQzXdIuYY2MBY4Fyt4DhWrl/g+b5jQWMBXQLGK7pFjHHxgLGAuVuAcO1cv8GzfMbCxgL6BYwXNMtYo6NBYwFyt0Chmvl/g2a5zcWMBbQLfD/AXHPR90Zy5ePAAAAAElFTkSuQmCC;" parent="1" vertex="1">
          <mxGeometry x="180" y="1800" width="73.55" height="65" as="geometry" />
        </mxCell>
        <mxCell id="64za9qXbno38b4CeHoNa-7" style="edgeStyle=orthogonalEdgeStyle;rounded=0;hachureGap=4;orthogonalLoop=1;jettySize=auto;html=1;exitX=0.5;exitY=0;exitDx=0;exitDy=0;entryX=0;entryY=0.5;entryDx=0;entryDy=0;fontFamily=Architects Daughter;fontSource=https%3A%2F%2Ffonts.googleapis.com%2Fcss%3Ffamily%3DArchitects%2BDaughter;" parent="1" source="64za9qXbno38b4CeHoNa-2" target="64za9qXbno38b4CeHoNa-3" edge="1">
          <mxGeometry relative="1" as="geometry" />
        </mxCell>
        <mxCell id="64za9qXbno38b4CeHoNa-2" value="&lt;b&gt;Staging Area&lt;/b&gt;" style="rounded=1;whiteSpace=wrap;html=1;hachureGap=4;fontFamily=Architects Daughter;fontSource=https%3A%2F%2Ffonts.googleapis.com%2Fcss%3Ffamily%3DArchitects%2BDaughter;fillColor=#dae8fc;strokeColor=#6c8ebf;" parent="1" vertex="1">
          <mxGeometry x="310" y="1740" width="95" height="50" as="geometry" />
        </mxCell>
        <mxCell id="64za9qXbno38b4CeHoNa-13" style="edgeStyle=orthogonalEdgeStyle;rounded=0;hachureGap=4;orthogonalLoop=1;jettySize=auto;html=1;fontFamily=Architects Daughter;fontSource=https%3A%2F%2Ffonts.googleapis.com%2Fcss%3Ffamily%3DArchitects%2BDaughter;" parent="1" source="64za9qXbno38b4CeHoNa-3" target="64za9qXbno38b4CeHoNa-12" edge="1">
          <mxGeometry relative="1" as="geometry">
            <Array as="points">
              <mxPoint x="520" y="1575" />
            </Array>
          </mxGeometry>
        </mxCell>
        <mxCell id="64za9qXbno38b4CeHoNa-3" value="&lt;b&gt;Local Repo&lt;/b&gt;" style="rounded=1;whiteSpace=wrap;html=1;hachureGap=4;fontFamily=Architects Daughter;fontSource=https%3A%2F%2Ffonts.googleapis.com%2Fcss%3Ffamily%3DArchitects%2BDaughter;fillColor=#f8cecc;strokeColor=#b85450;" parent="1" vertex="1">
          <mxGeometry x="447.5" y="1654" width="95" height="50" as="geometry" />
        </mxCell>
        <mxCell id="64za9qXbno38b4CeHoNa-8" value="&lt;b&gt;Work Space&lt;/b&gt;" style="text;html=1;align=center;verticalAlign=middle;resizable=0;points=[];autosize=1;strokeColor=none;fillColor=none;fontFamily=Architects Daughter;fontSource=https%3A%2F%2Ffonts.googleapis.com%2Fcss%3Ffamily%3DArchitects%2BDaughter;" parent="1" vertex="1">
          <mxGeometry x="163.55" y="1865" width="90" height="30" as="geometry" />
        </mxCell>
        <mxCell id="64za9qXbno38b4CeHoNa-10" value="&lt;b&gt;Adding&lt;/b&gt;" style="text;html=1;align=center;verticalAlign=middle;resizable=0;points=[];autosize=1;strokeColor=none;fillColor=none;fontFamily=Architects Daughter;fontSource=https%3A%2F%2Ffonts.googleapis.com%2Fcss%3Ffamily%3DArchitects%2BDaughter;" parent="1" vertex="1">
          <mxGeometry x="230" y="1760" width="60" height="30" as="geometry" />
        </mxCell>
        <mxCell id="64za9qXbno38b4CeHoNa-11" value="&lt;b&gt;Commit&lt;/b&gt;" style="text;html=1;align=center;verticalAlign=middle;resizable=0;points=[];autosize=1;strokeColor=none;fillColor=none;fontFamily=Architects Daughter;fontSource=https%3A%2F%2Ffonts.googleapis.com%2Fcss%3Ffamily%3DArchitects%2BDaughter;" parent="1" vertex="1">
          <mxGeometry x="370" y="1674" width="60" height="30" as="geometry" />
        </mxCell>
        <mxCell id="48khVN2Rro_bpfYi4tm6-4" style="edgeStyle=orthogonalEdgeStyle;rounded=0;hachureGap=4;orthogonalLoop=1;jettySize=auto;html=1;exitX=1;exitY=0.5;exitDx=0;exitDy=0;entryX=0.5;entryY=0;entryDx=0;entryDy=0;fontFamily=Architects Daughter;fontSource=https%3A%2F%2Ffonts.googleapis.com%2Fcss%3Ffamily%3DArchitects%2BDaughter;" edge="1" parent="1" source="64za9qXbno38b4CeHoNa-12" target="48khVN2Rro_bpfYi4tm6-2">
          <mxGeometry relative="1" as="geometry" />
        </mxCell>
        <mxCell id="64za9qXbno38b4CeHoNa-12" value="&lt;b&gt;Remote&lt;/b&gt;&lt;b style=&quot;background-color: initial;&quot;&gt;&amp;nbsp;Repo&lt;/b&gt;" style="rounded=1;whiteSpace=wrap;html=1;hachureGap=4;fontFamily=Architects Daughter;fontSource=https%3A%2F%2Ffonts.googleapis.com%2Fcss%3Ffamily%3DArchitects%2BDaughter;fillColor=#e1d5e7;strokeColor=#9673a6;" parent="1" vertex="1">
          <mxGeometry x="592.5" y="1550" width="95" height="50" as="geometry" />
        </mxCell>
        <mxCell id="64za9qXbno38b4CeHoNa-14" value="&lt;b&gt;Push&lt;/b&gt;" style="text;html=1;align=center;verticalAlign=middle;resizable=0;points=[];autosize=1;strokeColor=none;fillColor=none;fontFamily=Architects Daughter;fontSource=https%3A%2F%2Ffonts.googleapis.com%2Fcss%3Ffamily%3DArchitects%2BDaughter;" parent="1" vertex="1">
          <mxGeometry x="530" y="1570" width="50" height="30" as="geometry" />
        </mxCell>
        <mxCell id="48khVN2Rro_bpfYi4tm6-1" value="" style="sketch=0;aspect=fixed;pointerEvents=1;shadow=0;dashed=0;html=1;strokeColor=none;labelPosition=center;verticalLabelPosition=bottom;verticalAlign=top;align=center;fillColor=#00188D;shape=mxgraph.azure.laptop;hachureGap=4;jiggle=2;curveFitting=1;fontFamily=Architects Daughter;fontSource=https%3A%2F%2Ffonts.googleapis.com%2Fcss%3Ffamily%3DArchitects%2BDaughter;" vertex="1" parent="1">
          <mxGeometry x="640" y="1712" width="210" height="126" as="geometry" />
        </mxCell>
        <mxCell id="48khVN2Rro_bpfYi4tm6-2" value="&lt;b&gt;&lt;font style=&quot;font-size: 16px;&quot;&gt;Linux Server&lt;/font&gt;&lt;/b&gt;" style="rounded=1;whiteSpace=wrap;html=1;hachureGap=4;fontFamily=Architects Daughter;fontSource=https%3A%2F%2Ffonts.googleapis.com%2Fcss%3Ffamily%3DArchitects%2BDaughter;fillColor=#dae8fc;strokeColor=#6c8ebf;" vertex="1" parent="1">
          <mxGeometry x="900" y="1710" width="180" height="130" as="geometry" />
        </mxCell>
        <mxCell id="48khVN2Rro_bpfYi4tm6-5" style="edgeStyle=orthogonalEdgeStyle;rounded=0;hachureGap=4;orthogonalLoop=1;jettySize=auto;html=1;exitX=0.5;exitY=1;exitDx=0;exitDy=0;entryX=0.538;entryY=-0.016;entryDx=0;entryDy=0;entryPerimeter=0;fontFamily=Architects Daughter;fontSource=https%3A%2F%2Ffonts.googleapis.com%2Fcss%3Ffamily%3DArchitects%2BDaughter;" edge="1" parent="1" source="64za9qXbno38b4CeHoNa-12" target="48khVN2Rro_bpfYi4tm6-1">
          <mxGeometry relative="1" as="geometry" />
        </mxCell>
        <mxCell id="48khVN2Rro_bpfYi4tm6-6" value="&lt;b&gt;Windows&lt;/b&gt;" style="text;html=1;align=center;verticalAlign=middle;resizable=0;points=[];autosize=1;strokeColor=none;fillColor=none;fontFamily=Architects Daughter;fontSource=https%3A%2F%2Ffonts.googleapis.com%2Fcss%3Ffamily%3DArchitects%2BDaughter;" vertex="1" parent="1">
          <mxGeometry x="710" y="1750" width="70" height="30" as="geometry" />
        </mxCell>
        <mxCell id="48khVN2Rro_bpfYi4tm6-7" value="&lt;b&gt;&lt;font style=&quot;font-size: 12px;&quot;&gt;Clone&lt;/font&gt;&lt;/b&gt;" style="text;html=1;align=center;verticalAlign=middle;resizable=0;points=[];autosize=1;strokeColor=none;fillColor=none;fontFamily=Architects Daughter;fontSource=https%3A%2F%2Ffonts.googleapis.com%2Fcss%3Ffamily%3DArchitects%2BDaughter;" vertex="1" parent="1">
          <mxGeometry x="680" y="1630" width="50" height="30" as="geometry" />
        </mxCell>
        <mxCell id="48khVN2Rro_bpfYi4tm6-10" value="&lt;b&gt;&lt;font style=&quot;font-size: 12px;&quot;&gt;Clone&lt;/font&gt;&lt;/b&gt;" style="text;html=1;align=center;verticalAlign=middle;resizable=0;points=[];autosize=1;strokeColor=none;fillColor=none;fontFamily=Architects Daughter;fontSource=https%3A%2F%2Ffonts.googleapis.com%2Fcss%3Ffamily%3DArchitects%2BDaughter;" vertex="1" parent="1">
          <mxGeometry x="790" y="1570" width="50" height="30" as="geometry" />
        </mxCell>
      </root>
    </mxGraphModel>
  </diagram>
</mxfile>
